<?xml version="1.0" encoding="UTF-8"?>
<svg xmlns="http://www.w3.org/2000/svg" xmlns:xlink="http://www.w3.org/1999/xlink" width="375pt" height="374.999991pt" viewBox="0 0 375 374.999991" version="1.2">
<defs>
<clipPath id="clip1">
  <path d="M 102.03125 82 L 186 82 L 186 155 L 102.03125 155 Z M 102.03125 82 "/>
</clipPath>
</defs>
<g id="surface1">
<path style=" stroke:none;fill-rule:nonzero;fill:rgb(28.239441%,24.708557%,25.489807%);fill-opacity:1;" d="M 207.140625 368.46875 L 207.140625 374.953125 L 159.75 374.953125 C 159.75 374.953125 156.203125 373.777344 158.425781 371.710938 C 160.652344 369.648438 171.835938 362.195312 176.347656 362.796875 C 178.871094 360.214844 180.667969 357.628906 182.417969 357.988281 C 184.167969 358.351562 207.140625 368.46875 207.140625 368.46875 "/>
<path style=" stroke:none;fill-rule:nonzero;fill:rgb(38.038635%,63.139343%,66.668701%);fill-opacity:1;" d="M 220.269531 191.964844 C 220.269531 191.964844 222.53125 221.289062 225.417969 229.941406 C 228.308594 238.59375 247.84375 282.820312 247.457031 284.5 C 247.070312 286.183594 246.644531 285.703125 247.457031 288.109375 C 248.273438 290.511719 257.171875 324.398438 258.132812 328.96875 C 259.097656 333.535156 264.628906 349.398438 264.628906 350.359375 C 264.628906 351.320312 264.628906 354.445312 264.628906 354.445312 C 264.628906 354.445312 267.996094 363.820312 267.515625 365.019531 C 267.035156 366.222656 240.574219 367.90625 240.574219 367.90625 L 235.523438 363.097656 L 239.851562 353.242188 C 239.851562 353.242188 237.207031 346.511719 236.964844 343.628906 C 236.722656 340.746094 231.433594 288.109375 229.027344 286.183594 C 226.621094 284.261719 224.457031 284.5 225.417969 282.339844 C 226.382812 280.175781 227.34375 279.933594 226.863281 278.492188 C 226.382812 277.050781 210.046875 214.800781 206.1875 214.320312 C 202.328125 213.839844 194.871094 214.078125 194.628906 214.800781 C 194.390625 215.519531 193.667969 269.839844 194.628906 272.964844 C 195.59375 276.089844 198.960938 277.773438 197.277344 279.933594 C 195.59375 282.097656 195.59375 286.90625 195.59375 286.90625 C 195.59375 286.90625 202.085938 335.699219 203.769531 339.300781 C 205.453125 342.90625 207.402344 343.871094 206.1875 347.472656 C 204.972656 351.078125 209.0625 351.320312 209.0625 354.203125 C 209.0625 357.089844 207.113281 359.972656 207.246094 360.453125 C 207.378906 360.933594 212.910156 366.222656 210.265625 367.90625 C 207.621094 369.585938 190.058594 367.183594 187.652344 366.703125 C 185.246094 366.222656 181.636719 360.453125 179.234375 359.972656 C 176.828125 359.492188 180.675781 352.761719 182.121094 351.558594 C 183.5625 350.359375 184.042969 290.511719 182.121094 285.460938 C 180.195312 280.417969 181.878906 275.847656 181.878906 275.847656 C 181.878906 275.847656 181.160156 203.742188 180.917969 199.65625 C 180.675781 195.570312 220.269531 191.964844 220.269531 191.964844 "/>
<g clip-path="url(#clip1)" clip-rule="nonzero">
<path style=" stroke:none;fill-rule:nonzero;fill:rgb(98.429871%,78.42865%,46.669006%);fill-opacity:1;" d="M 185.488281 126.511719 C 185.488281 126.511719 163.515625 156.464844 157.585938 154.945312 C 151.652344 153.429688 130.324219 116.097656 130.324219 116.097656 C 130.324219 116.097656 118.734375 115.535156 117.171875 111.449219 C 115.726562 112.167969 113.023438 108.203125 114.105469 106.703125 C 112.664062 106.703125 109.65625 103.035156 111.097656 101.472656 C 110.316406 101.292969 106.585938 97.628906 107.730469 96.003906 C 108.875 94.382812 111.21875 93.183594 111.21875 93.183594 C 111.21875 93.183594 102.859375 92.21875 102.378906 88.734375 C 101.894531 85.25 102.4375 82.125 104.542969 82.546875 C 106.648438 82.96875 124.6875 89.636719 126.613281 91.4375 C 128.539062 93.242188 133.226562 96.664062 133.226562 96.664062 C 133.226562 96.664062 141.347656 87.171875 145.558594 90.71875 C 149.765625 94.261719 147.960938 95.042969 144.234375 97.148438 C 140.507812 99.25 137.199219 102.917969 137.738281 104.777344 C 138.28125 106.640625 155.652344 133.441406 158 133.199219 C 160.351562 132.960938 173.160156 118.179688 173.160156 118.179688 L 185.488281 126.511719 "/>
</g>
<path style=" stroke:none;fill-rule:nonzero;fill:rgb(94.119263%,21.569824%,29.019165%);fill-opacity:1;" d="M 206.976562 77.160156 C 206.976562 77.160156 226.542969 80.042969 230.390625 89.65625 C 234.238281 99.273438 242.5 117.21875 241.777344 119.5 C 241.054688 121.78125 241.898438 122.863281 242.617188 123.707031 C 243.339844 124.550781 245.746094 126.589844 244.300781 129.476562 C 242.859375 132.359375 230.230469 138.847656 228.425781 135.121094 C 226.621094 131.398438 225.867188 119.742188 225.867188 119.742188 C 225.867188 119.742188 222.152344 137.734375 222.292969 142.816406 C 222.429688 147.894531 218.925781 181.269531 219.765625 182.472656 C 220.605469 183.675781 223.015625 194.488281 221.449219 194.609375 C 219.886719 194.730469 192.105469 196.53125 185.125 199.65625 C 178.152344 202.78125 176.226562 203.265625 176.105469 201.460938 C 175.988281 199.65625 174.785156 191.605469 175.265625 186.679688 C 175.746094 181.753906 178.390625 125.511719 179.234375 124.1875 C 180.074219 122.863281 170.816406 120.460938 169.851562 117.9375 C 168.890625 115.414062 174.261719 114.09375 174.339844 112.769531 C 174.421875 111.449219 184.648438 93.542969 185.847656 90.417969 C 187.050781 87.296875 196.3125 81.527344 196.3125 81.527344 L 206.976562 77.160156 "/>
<path style=" stroke:none;fill-rule:nonzero;fill:rgb(94.898987%,30.589294%,39.99939%);fill-opacity:1;" d="M 214.113281 102.898438 C 214.113281 108.082031 207.246094 147.5 207.246094 147.5 C 207.246094 147.5 178.753906 157.472656 179.234375 158.855469 C 179.710938 160.238281 188.949219 192.929688 189.261719 194.128906 C 189.347656 194.441406 189.199219 196.292969 188.605469 198.554688 C 187.1875 198.898438 185.996094 199.269531 185.128906 199.65625 C 178.152344 202.78125 176.226562 203.261719 176.105469 201.460938 C 175.988281 199.65625 174.78125 191.605469 175.261719 186.679688 C 175.746094 181.75 178.386719 125.507812 179.234375 124.183594 C 180.078125 122.863281 170.816406 120.460938 169.851562 117.9375 C 168.890625 115.414062 174.261719 114.09375 174.34375 112.769531 C 174.421875 111.449219 184.648438 93.542969 185.847656 90.417969 C 185.847656 90.417969 214.113281 97.714844 214.113281 102.898438 "/>
<path style=" stroke:none;fill-rule:nonzero;fill:rgb(98.429871%,78.42865%,46.669006%);fill-opacity:1;" d="M 159.992188 19.957031 C 159.992188 19.957031 153.898438 24.90625 154.179688 31.445312 C 154.457031 37.980469 158.417969 62.257812 158.003906 67.863281 C 157.585938 73.472656 178.914062 92.703125 190.300781 77.476562 C 191.582031 76.679688 194.855469 86.132812 194.855469 86.132812 C 194.855469 86.132812 201.523438 93.34375 206.976562 77.160156 C 206.976562 77.160156 200.742188 70.828125 199.410156 65.539062 C 198.078125 60.253906 196.875 31.515625 191.261719 27.136719 C 185.648438 22.761719 159.992188 19.957031 159.992188 19.957031 "/>
<path style=" stroke:none;fill-rule:nonzero;fill:rgb(97.648621%,67.059326%,41.178894%);fill-opacity:1;" d="M 180.105469 77.1875 C 185.878906 74.21875 174.402344 25.234375 174.402344 25.234375 C 174.402344 25.234375 184.824219 25.578125 189.828125 26.261719 C 190.414062 26.554688 190.921875 26.855469 191.320312 27.167969 C 196.933594 31.546875 198.136719 60.28125 199.46875 65.574219 C 200.800781 70.859375 207.039062 77.1875 207.039062 77.1875 C 201.585938 93.371094 194.914062 86.160156 194.914062 86.160156 C 194.914062 86.160156 191.644531 76.707031 190.359375 77.511719 C 182.953125 87.410156 171.339844 82.730469 164.242188 76.710938 C 169.476562 77.871094 176.652344 78.960938 180.105469 77.1875 "/>
<path style=" stroke:none;fill-rule:nonzero;fill:rgb(97.648621%,94.509888%,21.958923%);fill-opacity:1;" d="M 192.164062 39.628906 C 192.164062 39.628906 189.757812 56.085938 188.132812 55.765625 C 186.511719 55.449219 185.367188 49.285156 185.367188 49.285156 C 185.367188 49.285156 183.324219 51.78125 182.84375 49.738281 C 182.363281 47.695312 182.902344 37.355469 182.242188 36.15625 C 181.578125 34.957031 174.0625 27.011719 171.898438 27.136719 C 169.734375 27.265625 170.09375 24.320312 170.09375 24.320312 C 170.09375 24.320312 168.289062 22.339844 167.148438 22.277344 C 166.003906 22.21875 158.730469 21.320312 156.621094 21.078125 C 154.519531 20.835938 144.355469 19.394531 143.152344 15.847656 C 141.949219 12.304688 152.828125 13.867188 152.828125 13.867188 C 152.828125 13.867188 146.324219 7.738281 149.820312 7.015625 C 153.316406 6.296875 161.015625 8.820312 161.015625 8.820312 C 161.015625 8.820312 156.253906 4.5625 158 2.304688 C 159.75 0.046875 178.875 1.726562 184.765625 9.238281 C 184.226562 6.296875 185.789062 2.632812 190.71875 5.453125 C 195.652344 8.277344 196.375 11.34375 196.375 11.34375 C 196.375 11.34375 197.355469 7.074219 200.109375 8.878906 C 202.867188 10.683594 215.558594 30.363281 211.226562 36.835938 C 211.226562 36.835938 208.179688 42.390625 204.089844 41.90625 C 204.492188 46.714844 204.414062 51.039062 201.203125 52.164062 C 201.765625 54.246094 205.273438 67.707031 200.109375 68.90625 C 194.949219 70.109375 193.1875 57.769531 193.1875 55.367188 C 193.1875 52.964844 193.308594 39.113281 192.164062 39.628906 "/>
<path style=" stroke:none;fill-rule:nonzero;fill:rgb(44.709778%,27.839661%,29.40979%);fill-opacity:1;" d="M 179.03125 43.027344 C 179.03125 43.027344 190.78125 42.707031 191.582031 43.269531 C 192.382812 43.828125 199.679688 51 200.082031 49.996094 C 200.480469 48.996094 196.632812 41.746094 194.230469 41.105469 C 191.820312 40.464844 178.472656 39.703125 178.472656 39.703125 C 178.472656 39.703125 178.152344 43.050781 179.03125 43.027344 "/>
<path style=" stroke:none;fill-rule:nonzero;fill:rgb(44.709778%,27.839661%,29.40979%);fill-opacity:1;" d="M 162.878906 38.34375 C 162.597656 38.222656 159.75 36.621094 159.148438 36.859375 C 158.546875 37.101562 157.707031 39.945312 158.105469 40.027344 C 158.507812 40.105469 159.886719 39.785156 160.4375 40.027344 C 160.992188 40.265625 162.597656 40.226562 162.597656 40.226562 L 162.878906 38.34375 "/>
<path style=" stroke:none;fill-rule:nonzero;fill:rgb(61.959839%,87.449646%,88.238525%);fill-opacity:1;" d="M 178.695312 38.53125 C 178.695312 38.53125 179.898438 48.386719 177.609375 49.46875 C 175.328125 50.550781 164.472656 50.460938 163.417969 48.6875 C 162.367188 46.917969 162.035156 37.632812 162.636719 36.699219 C 163.238281 35.769531 178.460938 35.851562 178.695312 38.53125 "/>
<path style=" stroke:none;fill-rule:nonzero;fill:rgb(61.959839%,87.449646%,88.238525%);fill-opacity:1;" d="M 158 36.164062 C 158 36.164062 159.871094 48.265625 157.433594 48.777344 C 154.996094 49.289062 147.933594 49.980469 147.0625 47.636719 C 146.191406 45.289062 144.957031 36.914062 146.125 36.164062 C 147.300781 35.40625 157.695312 35.292969 158 36.164062 "/>
<path style=" stroke:none;fill-rule:nonzero;fill:rgb(100%,100%,100%);fill-opacity:1;" d="M 171 36.273438 C 171 36.273438 172.015625 42.167969 169.761719 43.609375 C 167.507812 45.050781 166.0625 38.082031 166.0625 38.082031 C 166.0625 38.082031 165.554688 40.664062 164.621094 39.402344 C 163.6875 38.140625 163.824219 36.347656 163.824219 36.347656 C 163.824219 36.347656 167.949219 35.964844 171 36.273438 "/>
<path style=" stroke:none;fill-rule:nonzero;fill:rgb(100%,100%,100%);fill-opacity:1;" d="M 152.621094 35.554688 C 152.621094 35.554688 153.464844 42.738281 151.722656 43.609375 C 149.980469 44.484375 149.195312 39.011719 149.195312 39.011719 C 149.195312 39.011719 148.746094 41.714844 147.480469 40.226562 C 146.21875 38.742188 147.128906 35.882812 147.128906 35.882812 C 147.128906 35.882812 148.835938 35.582031 152.621094 35.554688 "/>
<path style=" stroke:none;fill-rule:nonzero;fill:rgb(97.648621%,94.509888%,21.958923%);fill-opacity:1;" d="M 170.394531 31.082031 C 170.394531 31.082031 172.105469 35.308594 170.003906 35.550781 C 167.898438 35.796875 161.3125 33.363281 161.070312 31.742188 C 160.832031 30.117188 161.3125 26.964844 162.667969 27.144531 C 164.019531 27.324219 169.953125 29.703125 170.394531 31.082031 "/>
<path style=" stroke:none;fill-rule:nonzero;fill:rgb(97.648621%,94.509888%,21.958923%);fill-opacity:1;" d="M 156.503906 28.109375 C 156.503906 28.109375 157.496094 31.53125 156.503906 32.792969 C 155.511719 34.054688 151.78125 36.160156 151.542969 34.476562 C 151.300781 32.792969 151.421875 31.234375 151.722656 30.574219 C 152.019531 29.910156 156.023438 26.785156 156.503906 28.109375 "/>
<path style=" stroke:none;fill-rule:nonzero;fill:rgb(94.509888%,25.878906%,34.899902%);fill-opacity:1;" d="M 166.886719 59.613281 C 166.886719 59.613281 176.347656 60.652344 179.632812 55.765625 C 182.601562 60.253906 182.8125 68.507812 178.417969 70.027344 C 174.023438 71.550781 166.886719 59.613281 166.886719 59.613281 "/>
<path style=" stroke:none;fill-rule:nonzero;fill:rgb(96.078491%,47.839355%,29.019165%);fill-opacity:1;" d="M 190.296875 44.089844 C 190.296875 44.089844 191.140625 37.421875 193.425781 37.78125 C 195.710938 38.140625 200.089844 43.042969 199.320312 46.191406 C 198.550781 49.339844 193.183594 56.566406 192.222656 55.765625 C 191.261719 54.964844 190.296875 44.089844 190.296875 44.089844 "/>
<path style=" stroke:none;fill-rule:nonzero;fill:rgb(32.939148%,32.159424%,31.369019%);fill-opacity:1;" d="M 169.3125 44.617188 C 169.3125 47.976562 170.171875 50.699219 171.238281 50.699219 C 172.296875 50.699219 173.160156 47.976562 173.160156 44.617188 C 173.160156 41.253906 172.296875 38.53125 171.238281 38.53125 C 170.171875 38.53125 169.3125 41.253906 169.3125 44.617188 "/>
<path style=" stroke:none;fill-rule:nonzero;fill:rgb(32.939148%,32.159424%,31.369019%);fill-opacity:1;" d="M 154.152344 44.089844 C 154.152344 47.449219 155.015625 50.171875 156.078125 50.171875 C 157.140625 50.171875 158 47.449219 158 44.089844 C 158 40.730469 157.140625 38.003906 156.078125 38.003906 C 155.015625 38.003906 154.152344 40.730469 154.152344 44.089844 "/>
<path style=" stroke:none;fill-rule:nonzero;fill:rgb(32.939148%,32.159424%,31.369019%);fill-opacity:1;" d="M 222.773438 136.683594 C 222.773438 136.683594 234.558594 173.941406 232.996094 175.742188 C 231.429688 177.542969 190.660156 190.765625 190.539062 190.402344 C 190.417969 190.042969 179.113281 153.269531 179.234375 152.308594 C 179.351562 151.347656 222.417969 135.554688 222.773438 136.683594 "/>
<path style=" stroke:none;fill-rule:nonzero;fill:rgb(42.749023%,42.349243%,41.569519%);fill-opacity:1;" d="M 179.234375 152.335938 C 179.335938 151.523438 210.214844 140.082031 219.898438 137.277344 C 221.777344 143.390625 225.03125 156.179688 220.96875 160.511719 C 216.828125 164.925781 195.078125 170.320312 185.097656 172.613281 C 182.171875 162.9375 179.171875 152.835938 179.234375 152.335938 "/>
<path style=" stroke:none;fill-rule:nonzero;fill:rgb(91.758728%,89.019775%,85.879517%);fill-opacity:1;" d="M 202.269531 155.855469 C 202.269531 157.511719 203.585938 158.859375 205.214844 158.859375 C 206.839844 158.859375 208.160156 157.511719 208.160156 155.855469 C 208.160156 154.195312 206.839844 152.847656 205.214844 152.847656 C 203.585938 152.847656 202.269531 154.195312 202.269531 155.855469 "/>
<path style=" stroke:none;fill-rule:nonzero;fill:rgb(97.648621%,67.059326%,41.178894%);fill-opacity:1;" d="M 242.789062 131.121094 C 242.789062 131.121094 248.433594 164.320312 247.308594 170.578125 C 246.1875 176.828125 215.480469 184.835938 214.675781 185.640625 C 213.871094 186.4375 203.6875 190.6875 201.847656 190.847656 C 200.003906 191.007812 197.925781 188.226562 197.925781 188.226562 C 197.925781 188.226562 192.707031 184.433594 193.105469 182.675781 C 193.507812 180.910156 203.050781 181.070312 203.050781 181.070312 C 203.050781 181.070312 233.164062 162.402344 233.140625 160.320312 C 233.117188 158.238281 230.980469 136.246094 230.980469 136.246094 C 230.980469 136.246094 239.703125 133.589844 242.789062 131.121094 "/>
<path style=" stroke:none;fill-rule:nonzero;fill:rgb(97.648621%,67.059326%,41.178894%);fill-opacity:1;" d="M 116.570312 93.023438 C 116.570312 93.023438 122.625 93.945312 123.386719 95.386719 C 124.148438 96.828125 122.0625 99.390625 122.0625 99.390625 C 122.0625 99.390625 116.890625 100.234375 117.011719 100.554688 C 117.132812 100.875 121.421875 100.269531 121.984375 101.554688 C 122.546875 102.835938 122.101562 104.921875 121.621094 105.238281 C 121.140625 105.558594 118.496094 105.71875 118.496094 105.71875 C 118.496094 105.71875 123.265625 107.042969 123.144531 108.042969 C 123.027344 109.046875 117.171875 111.449219 117.171875 111.449219 C 117.171875 111.449219 119.175781 112.890625 121.460938 112.769531 C 123.746094 112.652344 126.875 110.488281 126.59375 106.519531 C 126.3125 102.558594 125.390625 100.714844 125.269531 98.546875 C 125.152344 96.386719 124.832031 93.179688 116.570312 93.023438 "/>
<path style=" stroke:none;fill-rule:nonzero;fill:rgb(46.669006%,76.078796%,78.819275%);fill-opacity:1;" d="M 180.914062 201.4375 C 180.914062 201.4375 213.894531 200.015625 218.863281 211.675781 C 223.832031 223.335938 237.386719 270.5625 235.703125 277.773438 C 234.019531 284.984375 239.792969 287.867188 242.4375 298.441406 C 245.085938 309.019531 260.480469 350.359375 253.023438 357.808594 C 248.917969 361.914062 242.046875 361.492188 236.695312 360.289062 L 239.792969 353.242188 C 239.792969 353.242188 237.144531 346.511719 236.90625 343.628906 C 236.667969 340.746094 231.371094 288.105469 228.96875 286.183594 C 226.5625 284.261719 224.398438 284.503906 225.359375 282.339844 C 226.320312 280.175781 227.285156 279.933594 226.800781 278.492188 C 226.320312 277.050781 209.984375 214.800781 206.125 214.320312 C 202.265625 213.839844 194.808594 214.078125 194.566406 214.800781 C 194.449219 215.152344 194.21875 228.355469 194.125 242.105469 C 192.429688 253.058594 190.25 270.386719 191.867188 278.734375 C 194.328125 291.472656 204.191406 357.703125 196.011719 361.121094 C 190.917969 363.25 189.742188 366.851562 185.566406 365.484375 C 183.429688 363.632812 180.96875 360.332031 179.171875 359.972656 C 176.769531 359.492188 180.617188 352.761719 182.058594 351.558594 C 183.503906 350.359375 183.984375 290.511719 182.058594 285.464844 C 180.132812 280.417969 181.820312 275.847656 181.820312 275.847656 C 181.820312 275.847656 181.195312 213.324219 180.914062 201.4375 "/>
<path style=" stroke:none;fill-rule:nonzero;fill:rgb(28.239441%,24.708557%,25.489807%);fill-opacity:1;" d="M 269.519531 374.953125 L 238.085938 374.953125 C 238.085938 374.953125 236.484375 368.546875 242.417969 366.222656 C 248.351562 363.898438 266.394531 363.65625 268.160156 365.179688 C 269.921875 366.703125 272.96875 374.632812 269.519531 374.953125 "/>
<path style=" stroke:none;fill-rule:nonzero;fill:rgb(100%,100%,100%);fill-opacity:1;" d="M 203.234375 109.265625 L 203.976562 105.121094 C 200.789062 104.699219 200.066406 106.625 200.128906 108.246094 C 200.191406 109.871094 203.234375 109.265625 203.234375 109.265625 Z M 195.738281 110.050781 C 196.460938 103.679688 197.421875 98.152344 210.773438 100.433594 L 205 129.875 L 199.945312 129.875 L 202.699219 114.617188 C 202.699219 114.617188 195.015625 116.417969 195.738281 110.050781 "/>
<path style=" stroke:none;fill-rule:nonzero;fill:rgb(100%,100%,100%);fill-opacity:1;" d="M 194.710938 102.121094 L 191.738281 126.828125 C 191.738281 126.828125 191.453125 129.570312 188.132812 129.558594 C 185.714844 129.546875 183.296875 129.558594 182.792969 126.773438 C 182.289062 123.988281 183.722656 119.714844 183.722656 119.714844 L 186.527344 119.714844 C 186.527344 119.714844 185.726562 123.691406 186.46875 124.636719 C 187.214844 125.585938 188.460938 125.824219 188.699219 123.691406 C 188.933594 121.554688 191.796875 104.554688 190.765625 104.136719 C 189.734375 103.722656 188.472656 104.199219 188.246094 106.984375 L 184.980469 106.921875 C 184.980469 106.921875 185.898438 102.066406 187.15625 101.175781 C 188.417969 100.285156 195.152344 98.421875 194.710938 102.121094 "/>
</g>
</svg>
