<?xml version="1.0" encoding="UTF-8"?>
<svg xmlns="http://www.w3.org/2000/svg" xmlns:xlink="http://www.w3.org/1999/xlink" width="375pt" height="374.999991pt" viewBox="0 0 375 374.999991" version="1.2">
<defs>
<clipPath id="clip1">
  <path d="M 122 87 L 256 87 L 256 286 L 122 286 Z M 122 87 "/>
</clipPath>
<clipPath id="clip2">
  <path d="M 244.628906 81.105469 L 272.550781 273.339844 L 130.046875 294.039062 L 102.125 101.804688 Z M 244.628906 81.105469 "/>
</clipPath>
<clipPath id="clip3">
  <path d="M 272.535156 273.234375 L 244.613281 81 L 102.109375 101.699219 L 130.03125 293.933594 Z M 272.535156 273.234375 "/>
</clipPath>
</defs>
<g id="surface1">
<g clip-path="url(#clip1)" clip-rule="nonzero">
<g clip-path="url(#clip2)" clip-rule="nonzero">
<g clip-path="url(#clip3)" clip-rule="nonzero">
<path style=" stroke:none;fill-rule:nonzero;fill:rgb(36.079407%,32.159424%,49.798584%);fill-opacity:1;" d="M 170.625 234.375 C 172.152344 232.574219 173.523438 231.132812 174.699219 229.542969 C 178.59375 224.242188 182.695312 219.070312 186.167969 213.496094 C 189.910156 207.484375 187.570312 199.964844 181.613281 195.789062 C 180.136719 194.746094 179.414062 192.632812 178.226562 190.8125 C 176.007812 190.273438 175.375 192.40625 174.378906 193.8125 C 165.351562 206.554688 154.039062 217.078125 141.792969 226.558594 C 137.113281 230.1875 131.730469 232.945312 126.574219 235.925781 C 122.519531 238.269531 121.941406 238.578125 123 243.207031 C 124.882812 251.460938 128.789062 258.324219 136.75 262.542969 C 150.578125 269.890625 163.996094 278.035156 179.023438 282.867188 C 181.46875 283.644531 184.015625 284.121094 187.992188 285.105469 C 185.761719 278.429688 184.988281 272.785156 179.003906 269.957031 C 175.332031 268.226562 171.703125 266.441406 166.691406 264.042969 C 171.378906 262.566406 174.625 261.601562 177.824219 260.53125 C 201.9375 252.453125 222.828125 239.261719 237.136719 218.128906 C 250.175781 198.90625 257.992188 177.410156 254.820312 153.460938 C 252.136719 133.347656 241.75 117.253906 226.890625 104.027344 C 220.929688 98.738281 213.980469 94.535156 207.351562 90.027344 C 205.632812 88.859375 203.457031 88.394531 201.472656 87.613281 C 201.140625 88.078125 200.808594 88.539062 200.476562 89.003906 C 202.367188 91.246094 204.148438 93.601562 206.207031 95.679688 C 207.496094 96.976562 209.195312 97.875 210.746094 98.894531 C 230.707031 111.9375 238.296875 130.972656 236.722656 154.015625 C 235.527344 171.617188 228.359375 187.054688 217.457031 200.738281 C 205.964844 215.195312 191.523438 225.96875 174.714844 233.605469 C 173.964844 233.953125 173.195312 234.257812 172.414062 234.5 C 172.058594 234.582031 171.640625 234.449219 170.625 234.375 Z M 170.625 234.375 "/>
</g>
</g>
</g>
</g>
</svg>
