<?xml version="1.0" encoding="UTF-8"?>
<svg xmlns="http://www.w3.org/2000/svg" xmlns:xlink="http://www.w3.org/1999/xlink" width="375pt" height="374.999991pt" viewBox="0 0 375 374.999991" version="1.2">
<defs>
<clipPath id="clip1">
  <path d="M 0 37.5 L 375 37.5 L 375 64 L 0 64 Z M 0 37.5 "/>
</clipPath>
<clipPath id="clip2">
  <path d="M 1 61 L 374 61 L 374 279.75 L 1 279.75 Z M 1 61 "/>
</clipPath>
<clipPath id="clip3">
  <path d="M 0 60 L 375 60 L 375 279.75 L 0 279.75 Z M 0 60 "/>
</clipPath>
<clipPath id="clip4">
  <path d="M 1 60 L 374 60 L 374 279.75 L 1 279.75 Z M 1 60 "/>
</clipPath>
</defs>
<g id="surface1">
<path style=" stroke:none;fill-rule:nonzero;fill:rgb(56.858826%,66.668701%,87.059021%);fill-opacity:1;" d="M 373.1875 62.164062 L 373.1875 50.785156 C 373.1875 44 367.945312 38.503906 361.488281 38.503906 L 13.515625 38.503906 C 7.054688 38.503906 1.8125 44 1.8125 50.785156 L 1.8125 62.164062 L 373.1875 62.164062 "/>
<g clip-path="url(#clip1)" clip-rule="nonzero">
<path style=" stroke:none;fill-rule:nonzero;fill:rgb(100%,100%,100%);fill-opacity:1;" d="M 373.1875 62.164062 L 374.1875 62.164062 L 374.1875 50.785156 C 374.1875 47.132812 372.773438 43.8125 370.480469 41.40625 C 368.191406 39 365.003906 37.5 361.488281 37.5 L 13.515625 37.5 C 10 37.5 6.808594 39 4.519531 41.40625 C 2.226562 43.8125 0.816406 47.132812 0.816406 50.785156 L 0.816406 62.164062 C 0.816406 62.425781 0.917969 62.683594 1.109375 62.867188 C 1.292969 63.054688 1.550781 63.164062 1.8125 63.164062 L 373.1875 63.164062 C 373.453125 63.164062 373.703125 63.058594 373.894531 62.867188 C 374.078125 62.683594 374.1875 62.429688 374.1875 62.164062 L 373.1875 62.164062 L 373.1875 61.164062 L 2.808594 61.164062 L 2.808594 50.785156 C 2.808594 47.65625 4.019531 44.832031 5.960938 42.789062 C 7.910156 40.75 10.570312 39.503906 13.515625 39.503906 L 361.488281 39.503906 C 364.429688 39.503906 367.09375 40.75 369.035156 42.789062 C 370.980469 44.832031 372.1875 47.65625 372.1875 50.785156 L 372.1875 62.164062 L 373.1875 62.164062 L 373.1875 61.164062 L 373.1875 62.164062 "/>
</g>
<g clip-path="url(#clip2)" clip-rule="nonzero">
<path style=" stroke:none;fill-rule:nonzero;fill:rgb(10.5896%,11.369324%,23.139954%);fill-opacity:1;" d="M 1.8125 279.085938 L 373.1875 279.085938 L 373.1875 61.296875 L 1.8125 61.296875 Z M 1.8125 279.085938 "/>
</g>
<g clip-path="url(#clip3)" clip-rule="nonzero">
<path style=" stroke:none;fill-rule:nonzero;fill:rgb(100%,100%,100%);fill-opacity:1;" d="M 373.1875 279.085938 L 373.1875 278.085938 L 2.808594 278.085938 L 2.808594 62.296875 L 372.1875 62.296875 L 372.1875 279.085938 L 373.1875 279.085938 L 373.1875 278.085938 L 373.1875 279.085938 L 374.1875 279.085938 L 374.1875 61.296875 C 374.1875 61.03125 374.078125 60.773438 373.894531 60.585938 C 373.707031 60.398438 373.449219 60.292969 373.1875 60.292969 L 1.8125 60.292969 C 1.546875 60.292969 1.292969 60.398438 1.105469 60.585938 C 0.917969 60.773438 0.816406 61.03125 0.816406 61.296875 L 0.816406 279.085938 C 0.816406 279.351562 0.917969 279.609375 1.109375 279.792969 C 1.292969 279.980469 1.550781 280.085938 1.8125 280.085938 L 373.1875 280.085938 C 373.453125 280.085938 373.703125 279.980469 373.894531 279.792969 C 374.078125 279.605469 374.1875 279.355469 374.1875 279.085938 L 373.1875 279.085938 "/>
</g>
<path style=" stroke:none;fill-rule:nonzero;fill:rgb(30.589294%,30.198669%,55.288696%);fill-opacity:1;" d="M 372.1875 60.292969 L 357.5625 60.292969 C 360.460938 53.773438 363.222656 47.089844 365.425781 40.289062 C 366.785156 40.859375 368.011719 41.714844 369.035156 42.789062 C 370.980469 44.832031 372.1875 47.65625 372.1875 50.785156 L 372.1875 60.292969 "/>
<path style=" stroke:none;fill-rule:nonzero;fill:rgb(47.44873%,38.819885%,59.999084%);fill-opacity:1;" d="M 373.1875 60.292969 L 372.1875 60.292969 L 372.1875 50.785156 C 372.1875 47.65625 370.980469 44.832031 369.035156 42.789062 C 368.011719 41.714844 366.785156 40.859375 365.425781 40.289062 C 365.527344 39.976562 365.628906 39.660156 365.726562 39.34375 C 370.089844 41.132812 373.1875 45.574219 373.1875 50.785156 L 373.1875 60.292969 "/>
<path style=" stroke:none;fill-rule:nonzero;fill:rgb(6.669617%,6.269836%,15.689087%);fill-opacity:1;" d="M 372.1875 278.085938 L 2.808594 278.085938 L 2.808594 198.15625 C 30.210938 204.902344 58.195312 209.355469 86.34375 211.191406 C 92.351562 211.578125 98.421875 211.773438 104.539062 211.773438 C 201.871094 211.773438 310.476562 162.464844 352.503906 71.382812 C 353.878906 68.394531 355.28125 65.367188 356.667969 62.296875 L 372.1875 62.296875 L 372.1875 278.085938 "/>
<g clip-path="url(#clip4)" clip-rule="nonzero">
<path style=" stroke:none;fill-rule:nonzero;fill:rgb(47.44873%,38.819885%,59.999084%);fill-opacity:1;" d="M 373.1875 279.085938 L 1.8125 279.085938 L 1.8125 197.910156 C 2.144531 197.996094 2.480469 198.078125 2.808594 198.15625 L 2.808594 278.085938 L 372.1875 278.085938 L 372.1875 62.296875 L 356.667969 62.296875 C 356.964844 61.628906 357.265625 60.960938 357.5625 60.292969 L 373.1875 60.292969 L 373.1875 279.085938 M 373.1875 279.085938 L 373.1875 278.085938 L 373.1875 279.085938 "/>
</g>
<path style=" stroke:none;fill-rule:nonzero;fill:rgb(56.858826%,66.668701%,87.059021%);fill-opacity:1;" d="M 76.683594 100.058594 L 23.285156 100.058594 L 23.285156 92.71875 L 76.683594 92.71875 L 76.683594 100.058594 "/>
<path style=" stroke:none;fill-rule:nonzero;fill:rgb(100%,100%,100%);fill-opacity:1;" d="M 195.183594 100.058594 L 82.292969 100.058594 L 82.292969 92.71875 L 195.183594 92.71875 L 195.183594 100.058594 "/>
<path style=" stroke:none;fill-rule:nonzero;fill:rgb(100%,100%,100%);fill-opacity:1;" d="M 136.179688 189.082031 L 23.285156 189.082031 L 23.285156 181.746094 L 136.179688 181.746094 L 136.179688 189.082031 "/>
<path style=" stroke:none;fill-rule:nonzero;fill:rgb(100%,100%,100%);fill-opacity:1;" d="M 136.179688 235.550781 L 23.285156 235.550781 L 23.285156 228.210938 L 136.179688 228.210938 L 136.179688 235.550781 "/>
<path style=" stroke:none;fill-rule:nonzero;fill:rgb(100%,100%,100%);fill-opacity:1;" d="M 155.6875 218.980469 L 105.460938 218.980469 L 105.460938 211.640625 L 155.6875 211.640625 L 155.6875 218.980469 "/>
<path style=" stroke:none;fill-rule:nonzero;fill:rgb(100%,100%,100%);fill-opacity:1;" d="M 168.851562 133.804688 L 55.960938 133.804688 L 55.960938 126.46875 L 168.851562 126.46875 L 168.851562 133.804688 "/>
<path style=" stroke:none;fill-rule:nonzero;fill:rgb(56.858826%,66.668701%,87.059021%);fill-opacity:1;" d="M 99.609375 149.519531 L 23.285156 149.519531 L 23.285156 142.179688 L 99.609375 142.179688 L 99.609375 149.519531 "/>
<path style=" stroke:none;fill-rule:nonzero;fill:rgb(56.858826%,66.668701%,87.059021%);fill-opacity:1;" d="M 99.609375 218.980469 L 23.285156 218.980469 L 23.285156 211.640625 L 99.609375 211.640625 L 99.609375 218.980469 "/>
<path style=" stroke:none;fill-rule:nonzero;fill:rgb(100%,100%,100%);fill-opacity:1;" d="M 136.179688 117.664062 L 23.285156 117.664062 L 23.285156 110.328125 L 136.179688 110.328125 L 136.179688 117.664062 "/>
<path style=" stroke:none;fill-rule:nonzero;fill:rgb(100%,95.289612%,10.978699%);fill-opacity:1;" d="M 142.523438 117.664062 L 195.183594 117.664062 L 195.183594 110.328125 L 142.523438 110.328125 L 142.523438 117.664062 "/>
<path style=" stroke:none;fill-rule:nonzero;fill:rgb(100%,95.289612%,10.978699%);fill-opacity:1;" d="M 23.285156 203.753906 L 92.777344 203.753906 L 92.777344 196.421875 L 23.285156 196.421875 L 23.285156 203.753906 "/>
<path style=" stroke:none;fill-rule:nonzero;fill:rgb(100%,95.289612%,10.978699%);fill-opacity:1;" d="M 105.460938 149.519531 L 168.851562 149.519531 L 168.851562 142.179688 L 105.460938 142.179688 L 105.460938 149.519531 "/>
<path style=" stroke:none;fill-rule:nonzero;fill:rgb(92.939758%,7.058716%,58.039856%);fill-opacity:1;" d="M 23.285156 133.804688 L 49.621094 133.804688 L 49.621094 126.46875 L 23.285156 126.46875 L 23.285156 133.804688 "/>
<path style=" stroke:none;fill-rule:nonzero;fill:rgb(92.939758%,7.058716%,58.039856%);fill-opacity:1;" d="M 23.285156 165.503906 L 123.503906 165.503906 L 123.503906 158.167969 L 23.285156 158.167969 L 23.285156 165.503906 "/>
<path style=" stroke:none;fill-rule:nonzero;fill:rgb(92.939758%,7.058716%,58.039856%);fill-opacity:1;" d="M 97.410156 203.753906 L 181.042969 203.753906 L 181.042969 196.421875 L 97.410156 196.421875 L 97.410156 203.753906 "/>
<path style=" stroke:none;fill-rule:nonzero;fill:rgb(92.939758%,7.058716%,58.039856%);fill-opacity:1;" d="M 26.164062 49.78125 C 26.164062 52.664062 23.828125 55.007812 20.953125 55.007812 C 18.074219 55.007812 15.742188 52.664062 15.742188 49.78125 C 15.742188 46.894531 18.074219 44.550781 20.953125 44.550781 C 23.828125 44.550781 26.164062 46.894531 26.164062 49.78125 "/>
<path style=" stroke:none;fill-rule:nonzero;fill:rgb(100%,95.289612%,10.978699%);fill-opacity:1;" d="M 41.667969 49.78125 C 41.667969 52.664062 39.332031 55.007812 36.453125 55.007812 C 33.574219 55.007812 31.242188 52.664062 31.242188 49.78125 C 31.242188 46.894531 33.574219 44.550781 36.453125 44.550781 C 39.332031 44.550781 41.667969 46.894531 41.667969 49.78125 "/>
<path style=" stroke:none;fill-rule:nonzero;fill:rgb(29.798889%,25.099182%,49.798584%);fill-opacity:1;" d="M 58.121094 49.78125 C 58.121094 52.664062 55.789062 55.007812 52.914062 55.007812 C 50.035156 55.007812 47.703125 52.664062 47.703125 49.78125 C 47.703125 46.894531 50.035156 44.550781 52.914062 44.550781 C 55.789062 44.550781 58.121094 46.894531 58.121094 49.78125 "/>
</g>
</svg>
