<?xml version="1.0" encoding="UTF-8"?>
<svg xmlns="http://www.w3.org/2000/svg" xmlns:xlink="http://www.w3.org/1999/xlink" width="375pt" height="374.999991pt" viewBox="0 0 375 374.999991" version="1.2">
<defs>
<clipPath id="clip1">
  <path d="M 19.453125 329 L 229 329 L 229 353 L 19.453125 353 Z M 19.453125 329 "/>
</clipPath>
</defs>
<g id="surface1">
<g clip-path="url(#clip1)" clip-rule="nonzero">
<path style=" stroke:none;fill-rule:nonzero;fill:rgb(50.588989%,50.979614%,51.368713%);fill-opacity:1;" d="M 228.960938 340.804688 C 228.960938 347.019531 182.109375 352.058594 124.3125 352.058594 C 66.515625 352.058594 19.664062 347.019531 19.664062 340.804688 C 19.664062 334.59375 66.515625 329.554688 124.3125 329.554688 C 182.109375 329.554688 228.960938 334.59375 228.960938 340.804688 "/>
</g>
<path style=" stroke:none;fill-rule:nonzero;fill:rgb(58.428955%,58.428955%,58.428955%);fill-opacity:1;" d="M 311.988281 355.230469 C 311.988281 361.441406 265.136719 366.480469 207.335938 366.480469 C 149.542969 366.480469 102.691406 361.441406 102.691406 355.230469 C 102.691406 349.015625 149.542969 343.976562 207.335938 343.976562 C 265.136719 343.976562 311.988281 349.015625 311.988281 355.230469 "/>
<path style=" stroke:none;fill-rule:nonzero;fill:rgb(58.428955%,58.428955%,58.428955%);fill-opacity:1;" d="M 331.015625 362.730469 C 331.015625 368.941406 284.164062 373.976562 226.367188 373.976562 C 168.570312 373.976562 121.714844 368.941406 121.714844 362.730469 C 121.714844 356.515625 168.570312 351.480469 226.367188 351.480469 C 284.164062 351.480469 331.015625 356.515625 331.015625 362.730469 "/>
<path style=" stroke:none;fill-rule:nonzero;fill:rgb(62.748718%,63.919067%,63.919067%);fill-opacity:1;" d="M 147.5625 170.660156 C 147.5625 170.660156 140.398438 172.933594 138.828125 199.675781 L 135.992188 199.675781 C 135.992188 199.675781 138.476562 170.832031 147.5625 167.6875 L 147.5625 170.660156 "/>
<path style=" stroke:none;fill-rule:nonzero;fill:rgb(77.249146%,77.648926%,77.648926%);fill-opacity:1;" d="M 149.253906 170.660156 C 149.253906 170.660156 142.09375 172.933594 140.519531 199.675781 L 137.683594 199.675781 C 137.683594 199.675781 140.171875 170.832031 149.253906 167.6875 L 149.253906 170.660156 "/>
<path style=" stroke:none;fill-rule:nonzero;fill:rgb(73.329163%,26.669312%,21.958923%);fill-opacity:1;" d="M 58.050781 108.445312 L 65.507812 154.476562 C 65.507812 154.476562 80.414062 161.648438 132.945312 154.476562 L 128.867188 143.988281 L 125.492188 108.445312 C 125.492188 108.445312 76.6875 104.195312 58.050781 108.445312 "/>
<path style=" stroke:none;fill-rule:nonzero;fill:rgb(82.348633%,27.839661%,12.548828%);fill-opacity:1;" d="M 123.859375 69.40625 C 123.859375 69.40625 72.378906 57.925781 56.421875 69.40625 L 58.050781 108.445312 C 58.050781 108.445312 89.792969 112.757812 125.492188 108.445312 L 123.859375 69.40625 "/>
<path style=" stroke:none;fill-rule:nonzero;fill:rgb(7.449341%,10.5896%,10.198975%);fill-opacity:1;" d="M 82.851562 309.65625 L 81.976562 323.109375 L 85.855469 323.109375 L 87.351562 314.140625 L 115.144531 313.839844 L 114.796875 307.195312 L 82.851562 309.65625 "/>
<path style=" stroke:none;fill-rule:nonzero;fill:rgb(7.449341%,10.5896%,10.198975%);fill-opacity:1;" d="M 154.550781 309.65625 L 155.425781 323.109375 L 151.546875 323.109375 L 150.050781 314.140625 L 122.605469 313.839844 L 122.605469 307.195312 L 154.550781 309.65625 "/>
<path style=" stroke:none;fill-rule:nonzero;fill:rgb(7.449341%,10.5896%,10.198975%);fill-opacity:1;" d="M 122.453125 283.578125 L 115.507812 283.578125 L 115.507812 266.464844 L 122.453125 266.464844 L 122.453125 283.578125 "/>
<path style=" stroke:none;fill-rule:nonzero;fill:rgb(62.748718%,63.919067%,63.919067%);fill-opacity:1;" d="M 125.960938 307.195312 L 112.078125 307.195312 L 112.078125 282.980469 L 125.960938 282.980469 L 125.960938 307.195312 "/>
<path style=" stroke:none;fill-rule:nonzero;fill:rgb(7.449341%,10.5896%,10.198975%);fill-opacity:1;" d="M 114.796875 307.195312 L 115.144531 313.839844 L 58.074219 322.960938 L 56.578125 332.675781 L 50.90625 332.675781 L 54.042969 319.933594 L 114.796875 307.195312 "/>
<path style=" stroke:none;fill-rule:nonzero;fill:rgb(7.449341%,10.5896%,10.198975%);fill-opacity:1;" d="M 122.605469 307.195312 L 122.605469 313.839844 L 179.328125 322.960938 L 180.824219 332.675781 L 186.496094 332.675781 L 183.359375 319.933594 L 122.605469 307.195312 "/>
<path style=" stroke:none;fill-rule:nonzero;fill:rgb(7.449341%,10.5896%,10.198975%);fill-opacity:1;" d="M 123.164062 307.195312 L 122.453125 342.539062 L 116.628906 342.539062 L 114.796875 307.195312 L 123.164062 307.195312 "/>
<path style=" stroke:none;fill-rule:nonzero;fill:rgb(62.748718%,63.919067%,63.919067%);fill-opacity:1;" d="M 123.203125 269.753906 L 114.835938 269.753906 L 114.835938 212.628906 L 123.203125 212.628906 L 123.203125 269.753906 "/>
<path style=" stroke:none;fill-rule:nonzero;fill:rgb(15.289307%,15.689087%,15.289307%);fill-opacity:1;" d="M 58.164062 336.054688 C 58.164062 333.839844 56.898438 331.933594 55.054688 331 L 55.054688 330.386719 L 52.5 330.386719 C 49.375 330.386719 46.835938 332.921875 46.835938 336.054688 C 46.835938 339.183594 49.375 341.722656 52.5 341.722656 L 55.054688 341.722656 L 55.054688 341.101562 C 56.898438 340.167969 58.164062 338.261719 58.164062 336.054688 "/>
<path style=" stroke:none;fill-rule:nonzero;fill:rgb(25.878906%,27.059937%,27.839661%);fill-opacity:1;" d="M 60.71875 336.054688 C 60.71875 339.179688 58.183594 341.722656 55.054688 341.722656 C 51.925781 341.722656 49.390625 339.179688 49.390625 336.054688 C 49.390625 332.921875 51.925781 330.386719 55.054688 330.386719 C 58.183594 330.386719 60.71875 332.921875 60.71875 336.054688 "/>
<path style=" stroke:none;fill-rule:nonzero;fill:rgb(15.289307%,15.689087%,15.289307%);fill-opacity:1;" d="M 88.816406 324.867188 C 88.816406 322.65625 87.550781 320.746094 85.707031 319.8125 L 85.707031 319.199219 L 83.152344 319.199219 C 80.027344 319.199219 77.488281 321.738281 77.488281 324.867188 C 77.488281 327.996094 80.027344 330.53125 83.152344 330.53125 L 85.707031 330.53125 L 85.707031 329.917969 C 87.550781 328.984375 88.816406 327.074219 88.816406 324.867188 "/>
<path style=" stroke:none;fill-rule:nonzero;fill:rgb(25.878906%,27.059937%,27.839661%);fill-opacity:1;" d="M 91.371094 324.867188 C 91.371094 327.996094 88.835938 330.53125 85.707031 330.53125 C 82.578125 330.53125 80.042969 327.996094 80.042969 324.867188 C 80.042969 321.738281 82.578125 319.199219 85.707031 319.199219 C 88.835938 319.199219 91.371094 321.738281 91.371094 324.867188 "/>
<path style=" stroke:none;fill-rule:nonzero;fill:rgb(15.289307%,15.689087%,15.289307%);fill-opacity:1;" d="M 123.40625 342.539062 C 123.40625 340.328125 122.140625 338.421875 120.296875 337.488281 L 120.296875 336.871094 L 117.742188 336.871094 C 114.613281 336.871094 112.078125 339.40625 112.078125 342.539062 C 112.078125 345.671875 114.613281 348.207031 117.742188 348.207031 L 120.296875 348.207031 L 120.296875 347.589844 C 122.140625 346.65625 123.40625 344.75 123.40625 342.539062 "/>
<path style=" stroke:none;fill-rule:nonzero;fill:rgb(25.878906%,27.059937%,27.839661%);fill-opacity:1;" d="M 125.960938 342.539062 C 125.960938 345.671875 123.425781 348.207031 120.296875 348.207031 C 117.167969 348.207031 114.632812 345.671875 114.632812 342.539062 C 114.632812 339.40625 117.167969 336.871094 120.296875 336.871094 C 123.425781 336.871094 125.960938 339.40625 125.960938 342.539062 "/>
<path style=" stroke:none;fill-rule:nonzero;fill:rgb(15.289307%,15.689087%,15.289307%);fill-opacity:1;" d="M 157.953125 324.867188 C 157.953125 322.65625 156.683594 320.746094 154.84375 319.8125 L 154.84375 319.199219 L 152.289062 319.199219 C 149.160156 319.199219 146.621094 321.738281 146.621094 324.867188 C 146.621094 327.996094 149.160156 330.53125 152.289062 330.53125 L 154.84375 330.53125 L 154.84375 329.917969 C 156.683594 328.984375 157.953125 327.074219 157.953125 324.867188 "/>
<path style=" stroke:none;fill-rule:nonzero;fill:rgb(25.878906%,27.059937%,27.839661%);fill-opacity:1;" d="M 160.507812 324.867188 C 160.507812 327.996094 157.972656 330.53125 154.84375 330.53125 C 151.714844 330.53125 149.179688 327.996094 149.179688 324.867188 C 149.179688 321.738281 151.714844 319.199219 154.84375 319.199219 C 157.972656 319.199219 160.507812 321.738281 160.507812 324.867188 "/>
<path style=" stroke:none;fill-rule:nonzero;fill:rgb(15.289307%,15.689087%,15.289307%);fill-opacity:1;" d="M 187.605469 334.199219 C 187.605469 331.992188 186.339844 330.082031 184.496094 329.148438 L 184.496094 328.53125 L 181.941406 328.53125 C 178.816406 328.53125 176.277344 331.070312 176.277344 334.199219 C 176.277344 337.332031 178.816406 339.867188 181.941406 339.867188 L 184.496094 339.867188 L 184.496094 339.253906 C 186.339844 338.320312 187.605469 336.410156 187.605469 334.199219 "/>
<path style=" stroke:none;fill-rule:nonzero;fill:rgb(25.878906%,27.059937%,27.839661%);fill-opacity:1;" d="M 190.160156 334.199219 C 190.160156 337.332031 187.625 339.867188 184.496094 339.867188 C 181.367188 339.867188 178.832031 337.332031 178.832031 334.199219 C 178.832031 331.070312 181.367188 328.53125 184.496094 328.53125 C 187.625 328.53125 190.160156 331.070312 190.160156 334.199219 "/>
<path style=" stroke:none;fill-rule:nonzero;fill:rgb(61.959839%,24.308777%,20.779419%);fill-opacity:1;" d="M 51.996094 107.628906 C 51.996094 107.628906 50.132812 69.171875 56.421875 69.40625 C 62.710938 69.636719 58.050781 108.445312 58.050781 108.445312 L 51.996094 107.628906 "/>
<path style=" stroke:none;fill-rule:nonzero;fill:rgb(61.959839%,24.308777%,20.779419%);fill-opacity:1;" d="M 59.714844 154.476562 L 51.996094 107.628906 L 58.050781 108.445312 L 65.507812 154.476562 L 59.714844 154.476562 "/>
<path style=" stroke:none;fill-rule:nonzero;fill:rgb(61.959839%,24.308777%,20.779419%);fill-opacity:1;" d="M 68.535156 197.132812 L 65.507812 154.476562 L 59.714844 154.476562 C 59.714844 154.476562 63.179688 191.65625 59.449219 203.078125 C 59.449219 203.078125 60.554688 207.269531 63.875 204.648438 C 67.195312 202.023438 68.746094 200.097656 68.535156 197.132812 "/>
<path style=" stroke:none;fill-rule:nonzero;fill:rgb(62.748718%,63.919067%,63.919067%);fill-opacity:1;" d="M 172.113281 174.8125 C 172.113281 174.8125 177.703125 198.453125 172.589844 213.664062 L 174.746094 217.160156 C 174.746094 217.160156 181.140625 204.835938 174.746094 174.8125 L 172.113281 174.8125 "/>
<path style=" stroke:none;fill-rule:nonzero;fill:rgb(77.249146%,77.648926%,77.648926%);fill-opacity:1;" d="M 173.804688 174.8125 C 173.804688 174.8125 179.394531 198.453125 174.28125 213.664062 L 176.4375 217.160156 C 176.4375 217.160156 182.832031 204.835938 176.4375 174.8125 L 173.804688 174.8125 "/>
<path style=" stroke:none;fill-rule:nonzero;fill:rgb(97.24884%,63.139343%,14.509583%);fill-opacity:1;" d="M 155.996094 162.058594 C 152.085938 161.976562 148.78125 165.300781 149.179688 169.195312 C 149.277344 170.128906 149.585938 171.007812 150.238281 171.707031 C 152.859375 174.503906 177.367188 176.910156 177.367188 176.910156 C 177.367188 176.910156 179.242188 168.214844 175.398438 166.289062 C 172.601562 164.890625 162.617188 162.195312 155.996094 162.058594 "/>
<path style=" stroke:none;fill-rule:nonzero;fill:rgb(61.959839%,24.308777%,20.779419%);fill-opacity:1;" d="M 83.269531 197.652344 C 83.269531 197.652344 62.304688 197.097656 63.875 204.648438 C 65.449219 212.195312 93.324219 215.203125 105.632812 226.214844 C 119.433594 238.5625 174.121094 222.480469 177.4375 217.058594 C 180.757812 211.640625 169.050781 194.335938 133.933594 193.113281 C 133.933594 193.113281 95.847656 196.78125 83.269531 197.652344 "/>
<path style=" stroke:none;fill-rule:nonzero;fill:rgb(73.329163%,26.669312%,21.958923%);fill-opacity:1;" d="M 66.75 199.753906 C 66.75 199.753906 117.957031 200.464844 135.992188 193.203125 L 132.945312 154.476562 L 65.507812 154.476562 L 66.75 199.753906 "/>
<path style=" stroke:none;fill-rule:nonzero;fill:rgb(98.039246%,74.119568%,3.529358%);fill-opacity:1;" d="M 151.222656 162.058594 C 147.3125 161.976562 144.007812 165.300781 144.40625 169.195312 C 144.5 170.128906 144.808594 171.007812 145.464844 171.707031 C 148.085938 174.503906 171.496094 177.128906 171.496094 177.128906 C 171.496094 177.128906 174.46875 168.214844 170.621094 166.289062 C 167.824219 164.890625 157.839844 162.195312 151.222656 162.058594 "/>
<path style=" stroke:none;fill-rule:nonzero;fill:rgb(96.859741%,59.609985%,5.879211%);fill-opacity:1;" d="M 146.527344 303.445312 L 143.382812 308.683594 C 143.382812 308.683594 145.144531 316.496094 149.652344 318.398438 C 154.164062 320.296875 152.960938 317.851562 152.960938 317.851562 L 157.421875 306.136719 L 146.527344 303.445312 "/>
<path style=" stroke:none;fill-rule:nonzero;fill:rgb(98.429871%,80.389404%,62.748718%);fill-opacity:1;" d="M 140.367188 315.464844 C 140.367188 315.464844 138.320312 316.683594 138.222656 318.53125 C 138.125 320.386719 144.015625 333.027344 158.351562 338.363281 C 170.6875 342.953125 169.246094 335.476562 169.246094 335.476562 L 140.367188 315.464844 "/>
<path style=" stroke:none;fill-rule:nonzero;fill:rgb(17.248535%,15.689087%,9.01947%);fill-opacity:1;" d="M 142.164062 310.429688 L 143.554688 308.4375 C 143.554688 308.4375 147.929688 314.90625 156.234375 316.363281 C 156.234375 316.363281 159.007812 325.710938 162.070312 327.613281 C 165.136719 329.507812 170.394531 334.125 169.042969 336.585938 C 167.691406 339.046875 163.839844 337.496094 162.328125 337.164062 C 160.8125 336.828125 146.066406 331.6875 139.480469 316.796875 C 139.480469 316.796875 139.886719 313.023438 142.164062 310.429688 "/>
<path style=" stroke:none;fill-rule:nonzero;fill:rgb(17.248535%,15.689087%,9.01947%);fill-opacity:1;" d="M 151.984375 318.574219 C 151.984375 318.574219 150.726562 314.265625 152.78125 313.316406 C 154.839844 312.363281 156.3125 315.296875 156.390625 316.863281 C 156.46875 318.429688 159.066406 326.605469 165.089844 329.769531 C 165.089844 329.769531 163.09375 328.929688 159.085938 329.449219 C 159.085938 329.449219 153.699219 324.4375 151.984375 318.574219 "/>
<path style=" stroke:none;fill-rule:nonzero;fill:rgb(95.289612%,38.42926%,12.159729%);fill-opacity:1;" d="M 150.972656 318.011719 C 153.058594 317.605469 155.066406 317.945312 156.9375 319.007812 C 157.753906 319.472656 158.292969 318.171875 157.480469 317.710938 C 155.417969 316.535156 153.0625 316.15625 150.761719 316.601562 C 149.855469 316.78125 150.054688 318.1875 150.972656 318.011719 "/>
<path style=" stroke:none;fill-rule:nonzero;fill:rgb(95.289612%,38.42926%,12.159729%);fill-opacity:1;" d="M 152.359375 321.445312 C 154.292969 321.265625 156.324219 321.144531 158.039062 322.273438 C 158.824219 322.789062 159.714844 321.695312 158.925781 321.175781 C 156.851562 319.808594 154.511719 319.820312 152.144531 320.035156 C 151.214844 320.121094 151.425781 321.523438 152.359375 321.445312 "/>
<path style=" stroke:none;fill-rule:nonzero;fill:rgb(95.289612%,38.42926%,12.159729%);fill-opacity:1;" d="M 154.09375 325.105469 C 155.882812 324.859375 157.726562 324.65625 159.511719 325.164062 C 160.40625 325.417969 160.964844 324.125 160.058594 323.867188 C 157.996094 323.28125 155.964844 323.414062 153.886719 323.699219 C 152.960938 323.824219 153.167969 325.230469 154.09375 325.105469 "/>
<path style=" stroke:none;fill-rule:nonzero;fill:rgb(95.289612%,38.42926%,12.159729%);fill-opacity:1;" d="M 156.875 328.371094 C 158.347656 328.070312 159.960938 327.417969 161.488281 327.882812 C 162.382812 328.152344 162.9375 326.855469 162.035156 326.585938 C 160.164062 326.019531 158.480469 326.59375 156.664062 326.964844 C 155.761719 327.152344 155.960938 328.558594 156.875 328.371094 "/>
<path style=" stroke:none;fill-rule:nonzero;fill:rgb(29.40979%,8.628845%,7.839966%);fill-opacity:1;" d="M 192.078125 217.25 C 192.078125 217.25 174.613281 237.78125 168.832031 253.453125 C 163.050781 269.128906 145.683594 303.40625 145.683594 303.40625 L 158.21875 308.414062 L 215.453125 219.957031 C 205.792969 208.308594 192.078125 217.25 192.078125 217.25 "/>
<path style=" stroke:none;fill-rule:nonzero;fill:rgb(90.19928%,12.548828%,14.118958%);fill-opacity:1;" d="M 157.753906 314.140625 C 151.832031 312.867188 146.277344 310.425781 141.339844 306.917969 C 142.507812 305.058594 143.679688 303.195312 144.847656 301.335938 C 149.257812 304.460938 154.210938 306.644531 159.492188 307.777344 C 158.914062 309.898438 158.332031 312.019531 157.753906 314.140625 "/>
<path style=" stroke:none;fill-rule:nonzero;fill:rgb(95.289612%,46.669006%,16.468811%);fill-opacity:1;" d="M 171.039062 158.527344 L 167.667969 162.25 C 167.667969 162.25 160.867188 152.867188 160.566406 152.308594 C 156.839844 145.492188 131.113281 101.625 143.003906 92.0625 C 155.726562 81.820312 167.636719 98.222656 169.746094 104.273438 C 170.015625 105.0625 170.359375 106.125 170.757812 107.390625 C 169.011719 110.167969 155.578125 132.632812 163.554688 152.585938 C 165.429688 157.289062 168.070312 158.894531 171.039062 158.527344 "/>
<path style=" stroke:none;fill-rule:nonzero;fill:rgb(85.879517%,29.40979%,12.159729%);fill-opacity:1;" d="M 171.980469 141.472656 L 173.566406 155.738281 L 171.039062 158.527344 C 168.070312 158.894531 165.429688 157.289062 163.554688 152.585938 C 155.578125 132.632812 169.011719 110.167969 170.757812 107.390625 C 171.390625 109.453125 172.160156 112.035156 172.984375 114.769531 C 173.867188 117.785156 174.839844 120.984375 175.738281 123.871094 C 176.746094 127.105469 177.679688 129.949219 178.390625 131.699219 C 178.828125 132.789062 179.179688 133.457031 179.40625 133.558594 L 171.980469 141.472656 "/>
<path style=" stroke:none;fill-rule:nonzero;fill:rgb(34.118652%,60.778809%,82.749939%);fill-opacity:1;" d="M 171.433594 109.613281 C 171.433594 109.613281 159.257812 120.339844 151.40625 135.167969 C 151.40625 135.167969 121.988281 88.03125 135.542969 86.328125 C 151.070312 84.375 167.21875 90.882812 171.433594 109.613281 "/>
<path style=" stroke:none;fill-rule:nonzero;fill:rgb(95.289612%,46.669006%,16.468811%);fill-opacity:1;" d="M 182.792969 146.882812 C 180.988281 155.460938 171.117188 163.84375 166.472656 162.046875 C 166.191406 161.9375 165.929688 161.75 165.683594 161.484375 C 164.714844 160.480469 164.03125 158.359375 163.550781 155.546875 L 163.542969 155.527344 C 163.050781 152.621094 162.773438 148.9375 162.65625 144.976562 C 162.574219 142.003906 164.265625 136.113281 166.710938 129.265625 C 167.585938 126.816406 168.554688 124.230469 169.582031 121.621094 C 175.507812 106.4375 180.234375 91.027344 180.234375 91.027344 L 189.707031 99.320312 C 189.707031 99.320312 184.222656 140.089844 182.792969 146.882812 "/>
<path style=" stroke:none;fill-rule:nonzero;fill:rgb(95.289612%,46.669006%,16.468811%);fill-opacity:1;" d="M 202.410156 81.214844 C 202.410156 81.214844 204.71875 83.144531 203.980469 85.308594 C 203.980469 85.308594 205.046875 87.308594 204.085938 89.605469 C 204.085938 89.605469 205.171875 91.519531 203.179688 93.140625 C 203.179688 93.140625 202.667969 94.929688 203.019531 96.125 C 203.363281 97.324219 200.480469 98.546875 196.738281 98.820312 C 191.546875 99.199219 189.707031 99.320312 189.707031 99.320312 L 180.234375 91.027344 C 180.234375 91.027344 181.421875 88.066406 183.789062 86.289062 C 185.902344 84.699219 189.558594 83.703125 189.558594 83.703125 C 189.558594 83.703125 190.023438 81.351562 198.90625 79.90625 C 198.90625 79.90625 197.367188 81.132812 197.453125 83.34375 C 197.453125 83.34375 200.082031 83.859375 202.410156 81.214844 "/>
<path style=" stroke:none;fill-rule:nonzero;fill:rgb(84.709167%,41.958618%,14.509583%);fill-opacity:1;" d="M 202.882812 94.488281 C 202.882812 94.488281 195.992188 89.800781 196.308594 93.460938 C 196.625 97.125 201.992188 97.535156 201.992188 97.535156 C 201.992188 97.535156 204.609375 96.03125 202.882812 94.488281 "/>
<path style=" stroke:none;fill-rule:nonzero;fill:rgb(76.858521%,15.689087%,19.999695%);fill-opacity:1;" d="M 203.359375 72.542969 L 205.578125 100.496094 C 205.707031 102.144531 207.160156 103.375 208.808594 103.25 L 214.519531 102.796875 C 212.871094 102.925781 211.417969 101.691406 211.289062 100.042969 L 209.070312 72.085938 C 208.96875 70.8125 209.933594 69.695312 211.207031 69.59375 L 205.496094 70.046875 C 204.222656 70.148438 203.261719 71.265625 203.359375 72.542969 "/>
<path style=" stroke:none;fill-rule:nonzero;fill:rgb(90.19928%,14.509583%,18.429565%);fill-opacity:1;" d="M 209.070312 72.085938 L 211.289062 100.042969 C 211.417969 101.691406 212.871094 102.925781 214.519531 102.796875 L 229.546875 101.601562 C 231.191406 101.46875 232.433594 100.023438 232.300781 98.375 L 230.089844 70.421875 C 229.988281 69.148438 228.859375 68.191406 227.585938 68.292969 L 211.207031 69.59375 C 209.933594 69.695312 208.96875 70.8125 209.070312 72.085938 "/>
<path style=" stroke:none;fill-rule:nonzero;fill:rgb(94.119263%,42.749023%,49.798584%);fill-opacity:1;" d="M 227.421875 99.066406 C 226.714844 99.066406 226.121094 98.523438 226.0625 97.808594 L 223.964844 71.332031 C 223.90625 70.582031 224.464844 69.925781 225.214844 69.863281 C 225.253906 69.859375 225.289062 69.859375 225.324219 69.859375 C 226.03125 69.859375 226.625 70.402344 226.683594 71.117188 L 228.78125 97.59375 C 228.839844 98.34375 228.28125 99.003906 227.53125 99.0625 C 227.492188 99.066406 227.457031 99.066406 227.421875 99.066406 "/>
<path style=" stroke:none;fill-rule:nonzero;fill:rgb(76.858521%,15.689087%,19.999695%);fill-opacity:1;" d="M 205.824219 80.664062 L 202.324219 80.941406 C 200.730469 81.0625 199.535156 82.464844 199.660156 84.058594 L 200.152344 90.25 C 200.277344 91.839844 201.675781 93.039062 203.269531 92.910156 L 206.773438 92.632812 Z M 197.707031 90.441406 L 197.214844 84.253906 C 196.980469 81.308594 199.183594 78.726562 202.125 78.488281 L 208.074219 78.019531 L 209.414062 94.886719 L 203.464844 95.355469 C 200.519531 95.59375 197.9375 93.386719 197.707031 90.441406 "/>
<path style=" stroke:none;fill-rule:nonzero;fill:rgb(83.139038%,40.779114%,14.509583%);fill-opacity:1;" d="M 201.886719 80.976562 C 201.886719 80.976562 190.902344 79.359375 193.929688 83.042969 C 196.945312 86.71875 203.417969 84.398438 203.417969 84.398438 C 203.417969 84.398438 204.671875 81.710938 201.886719 80.976562 "/>
<path style=" stroke:none;fill-rule:nonzero;fill:rgb(83.139038%,40.779114%,14.509583%);fill-opacity:1;" d="M 202.96875 84.78125 C 202.96875 84.78125 192.058594 83.015625 195.09375 86.542969 C 197.753906 89.640625 203.894531 88.347656 203.894531 88.347656 C 203.894531 88.347656 205.546875 85.535156 202.96875 84.78125 "/>
<path style=" stroke:none;fill-rule:nonzero;fill:rgb(83.139038%,40.779114%,14.509583%);fill-opacity:1;" d="M 204.097656 89.1875 C 204.097656 89.1875 196.738281 86.898438 196.046875 89.242188 C 195.359375 91.582031 203.269531 92.910156 203.269531 92.910156 C 203.269531 92.910156 205.800781 91.070312 204.097656 89.1875 "/>
<path style=" stroke:none;fill-rule:nonzero;fill:rgb(72.158813%,11.369324%,13.729858%);fill-opacity:1;" d="M 152.070312 87.835938 C 150.992188 102.945312 142.199219 106.1875 138.183594 106.871094 C 136.613281 107.144531 134.945312 107.191406 133.210938 107.027344 C 117.757812 105.550781 107.757812 91.460938 104.171875 85.476562 L 103.375 84.132812 C 105.160156 83.382812 107.015625 82.785156 108.929688 82.339844 C 109.199219 82.261719 109.46875 82.203125 109.734375 82.152344 C 112.585938 86.921875 121.175781 99.371094 133.824219 100.578125 C 144.6875 101.613281 145.953125 90.253906 145.660156 82.886719 L 145.660156 82.878906 C 145.769531 82.921875 145.882812 82.980469 145.996094 83.035156 L 146.078125 83.078125 L 146.199219 83.140625 C 146.304688 83.1875 146.398438 83.246094 146.5 83.296875 C 146.8125 83.476562 147.125 83.648438 147.429688 83.851562 L 147.628906 83.976562 C 147.726562 84.035156 147.820312 84.09375 147.910156 84.152344 L 148.050781 84.25 C 148.476562 84.535156 148.902344 84.847656 149.308594 85.179688 L 149.429688 85.273438 C 149.929688 85.683594 150.414062 86.117188 150.878906 86.582031 C 151.011719 86.710938 151.140625 86.839844 151.265625 86.96875 L 151.347656 87.050781 L 151.460938 87.171875 L 151.5625 87.273438 L 151.652344 87.371094 L 151.804688 87.53125 L 151.90625 87.648438 L 152.070312 87.835938 "/>
<path style=" stroke:none;fill-rule:nonzero;fill:rgb(95.289612%,46.669006%,16.468811%);fill-opacity:1;" d="M 145.660156 82.878906 L 145.660156 82.886719 C 145.953125 90.253906 144.6875 101.613281 133.824219 100.578125 C 121.175781 99.371094 112.585938 86.921875 109.734375 82.152344 C 109.839844 82.125 109.941406 82.097656 110.050781 82.082031 C 111.628906 81.761719 113.222656 81.542969 114.832031 81.429688 C 123.871094 80.824219 132.257812 80.777344 139.769531 81.292969 C 140.261719 81.332031 140.75 81.386719 141.234375 81.472656 L 141.367188 81.488281 C 141.476562 81.507812 141.574219 81.527344 141.667969 81.550781 C 142.097656 81.636719 142.527344 81.730469 142.941406 81.847656 C 143.050781 81.878906 143.167969 81.902344 143.273438 81.941406 L 143.40625 81.984375 C 143.542969 82.027344 143.683594 82.082031 143.824219 82.128906 C 144.308594 82.28125 144.792969 82.472656 145.273438 82.699219 C 145.402344 82.757812 145.527344 82.816406 145.660156 82.878906 "/>
<path style=" stroke:none;fill-rule:nonzero;fill:rgb(95.289612%,46.669006%,16.468811%);fill-opacity:1;" d="M 144.230469 82.449219 L 140.558594 64.152344 L 112.800781 63.085938 L 110.214844 81.601562 L 110.203125 81.601562 L 110.214844 81.617188 L 110.042969 82.824219 C 112.609375 86.167969 121.433594 95.441406 132.625 95.113281 C 137.800781 94.957031 142.585938 91.746094 144.039062 86.773438 C 144.453125 85.363281 144.605469 83.867188 144.230469 82.449219 "/>
<path style=" stroke:none;fill-rule:nonzero;fill:rgb(34.118652%,60.778809%,82.749939%);fill-opacity:1;" d="M 152.28125 87.769531 C 156.421875 93.195312 158.371094 96.078125 160.21875 106.867188 C 162.273438 134.28125 147.238281 138.605469 145.652344 154.953125 C 144.1875 170.046875 150.847656 178.289062 160.585938 194.480469 C 150.871094 202.578125 127.117188 215.699219 105.144531 213.617188 C 98.09375 203.128906 54.691406 103.003906 103.460938 84.136719 C 111.839844 95.5625 119.84375 108.222656 138.300781 106.816406 C 140.570312 106.429688 150.789062 104.679688 152.28125 87.769531 "/>
<path style=" stroke:none;fill-rule:nonzero;fill:rgb(29.40979%,8.628845%,7.839966%);fill-opacity:1;" d="M 141.800781 209.433594 C 143.714844 208.714844 148.738281 199.070312 152.398438 194.699219 C 153.394531 193.507812 154.898438 192.878906 156.441406 193.007812 C 165.492188 193.765625 200.773438 196.511719 213.441406 211.824219 C 215.84375 214.722656 217.0625 219.863281 213.933594 221.949219 C 211.671875 223.457031 206.542969 223.929688 201.6875 223.699219 C 189.730469 223.136719 141.800781 209.433594 141.800781 209.433594 "/>
<path style=" stroke:none;fill-rule:nonzero;fill:rgb(98.429871%,80.389404%,62.748718%);fill-opacity:1;" d="M 157.195312 335.8125 C 157.195312 335.8125 161.121094 341.78125 157.480469 347.363281 C 153.839844 352.945312 138.550781 351.164062 136.28125 346.667969 C 133.929688 342 137.089844 333.515625 137.089844 333.515625 L 157.195312 335.8125 "/>
<path style=" stroke:none;fill-rule:nonzero;fill:rgb(96.859741%,59.609985%,5.879211%);fill-opacity:1;" d="M 152.253906 320.714844 L 153.078125 330.269531 C 153.078125 330.269531 146.773438 336.652344 140.722656 330.042969 L 141.542969 319.152344 L 152.253906 320.714844 "/>
<path style=" stroke:none;fill-rule:nonzero;fill:rgb(17.248535%,15.689087%,9.01947%);fill-opacity:1;" d="M 152.863281 327.570312 L 152.144531 330.785156 C 152.144531 330.785156 147.648438 320.667969 142.539062 330.085938 L 141.367188 325.695312 C 141.367188 325.695312 133.765625 337.871094 138.113281 342.625 C 142.457031 347.378906 154.074219 347.808594 156.480469 343.339844 C 158.886719 338.867188 155.355469 330.878906 152.863281 327.570312 "/>
<path style=" stroke:none;fill-rule:nonzero;fill:rgb(95.289612%,38.42926%,12.159729%);fill-opacity:1;" d="M 152.957031 332.273438 C 149.238281 330.910156 145.445312 330.761719 141.632812 331.835938 C 140.550781 332.140625 140.15625 330.445312 141.230469 330.140625 C 145.308594 328.988281 149.484375 329.148438 153.464844 330.609375 C 154.511719 330.996094 154.007812 332.660156 152.957031 332.273438 "/>
<path style=" stroke:none;fill-rule:nonzero;fill:rgb(95.289612%,38.42926%,12.159729%);fill-opacity:1;" d="M 152.949219 335.042969 C 149.230469 333.679688 145.441406 333.527344 141.625 334.601562 C 140.546875 334.90625 140.152344 333.210938 141.226562 332.90625 C 145.304688 331.757812 149.480469 331.917969 153.457031 333.378906 C 154.503906 333.761719 154 335.429688 152.949219 335.042969 "/>
<path style=" stroke:none;fill-rule:nonzero;fill:rgb(95.289612%,38.42926%,12.159729%);fill-opacity:1;" d="M 153.019531 337.753906 C 149.300781 336.390625 145.511719 336.238281 141.699219 337.3125 C 140.617188 337.617188 140.222656 335.921875 141.296875 335.617188 C 145.375 334.46875 149.550781 334.628906 153.53125 336.089844 C 154.574219 336.472656 154.074219 338.144531 153.019531 337.753906 "/>
<path style=" stroke:none;fill-rule:nonzero;fill:rgb(95.289612%,38.42926%,12.159729%);fill-opacity:1;" d="M 153.234375 340.453125 C 149.515625 339.089844 145.722656 338.9375 141.910156 340.011719 C 140.828125 340.320312 140.433594 338.621094 141.507812 338.320312 C 145.585938 337.171875 149.761719 337.328125 153.738281 338.789062 C 154.789062 339.171875 154.285156 340.84375 153.234375 340.453125 "/>
<path style=" stroke:none;fill-rule:nonzero;fill:rgb(40.779114%,8.628845%,8.628845%);fill-opacity:1;" d="M 105.542969 213.703125 C 105.542969 213.703125 130.640625 224.679688 140.015625 227.070312 C 149.398438 229.460938 162.65625 218.945312 162.65625 218.945312 C 162.65625 218.945312 164.859375 208.703125 159.355469 204.238281 C 153.847656 199.777344 129.640625 192.90625 119.207031 198.804688 C 108.773438 204.703125 105.542969 213.703125 105.542969 213.703125 "/>
<path style=" stroke:none;fill-rule:nonzero;fill:rgb(40.779114%,8.628845%,8.628845%);fill-opacity:1;" d="M 137.335938 224.066406 C 137.335938 224.066406 134.382812 255.710938 135.414062 262.292969 C 136.441406 268.875 139.476562 318.355469 139.476562 318.355469 L 154.109375 319.0625 L 162.65625 218.945312 C 150.632812 195.023438 137.335938 224.066406 137.335938 224.066406 "/>
<path style=" stroke:none;fill-rule:nonzero;fill:rgb(90.19928%,12.548828%,14.118958%);fill-opacity:1;" d="M 155.828125 323.117188 C 149.859375 324.132812 143.796875 323.925781 137.910156 322.503906 C 138.304688 320.34375 138.699219 318.179688 139.097656 316.019531 C 144.347656 317.285156 149.757812 317.472656 155.089844 316.5625 C 155.335938 318.75 155.582031 320.929688 155.828125 323.117188 "/>
<path style=" stroke:none;fill-rule:nonzero;fill:rgb(6.269836%,5.879211%,5.099487%);fill-opacity:1;" d="M 153.636719 44.703125 L 167.230469 40.472656 L 167.230469 43.441406 L 154.027344 46.238281 L 153.636719 44.703125 "/>
<path style=" stroke:none;fill-rule:nonzero;fill:rgb(25.489807%,9.408569%,7.839966%);fill-opacity:1;" d="M 158.925781 17.460938 C 158.925781 17.460938 166.640625 37.300781 156.390625 49.589844 L 148.503906 46.125 L 146.894531 25.007812 L 158.925781 17.460938 "/>
<path style=" stroke:none;fill-rule:nonzero;fill:rgb(95.289612%,46.669006%,16.468811%);fill-opacity:1;" d="M 153.820312 14.707031 C 153.820312 14.707031 160.410156 32.984375 158.105469 43.453125 C 155.800781 53.921875 158.613281 62.339844 153.382812 75.265625 C 148.152344 88.191406 125.617188 86.566406 115.84375 74.628906 C 106.070312 62.6875 106.363281 37.910156 106.363281 37.910156 C 106.363281 37.910156 99.101562 0.0195312 153.820312 14.707031 "/>
<path style=" stroke:none;fill-rule:nonzero;fill:rgb(25.489807%,9.408569%,7.839966%);fill-opacity:1;" d="M 106.707031 51.945312 L 112.265625 50.667969 C 112.265625 50.667969 109.980469 46.316406 114.546875 38.433594 C 117.496094 33.34375 115.78125 27.097656 115.78125 27.097656 C 115.78125 27.097656 126.746094 17.621094 146.527344 25.824219 C 167.640625 34.582031 158.152344 6.566406 158.152344 6.566406 C 158.152344 6.566406 152.933594 11.257812 130.210938 6.691406 C 124.175781 5.480469 117.816406 6.574219 112.6875 9.992188 C 108.433594 12.824219 103.515625 16.585938 102.15625 24.332031 C 98.8125 43.40625 106.707031 51.945312 106.707031 51.945312 "/>
<path style=" stroke:none;fill-rule:nonzero;fill:rgb(25.489807%,9.408569%,7.839966%);fill-opacity:1;" d="M 146.152344 78.488281 C 144.257812 78.367188 144.183594 74.613281 144.183594 74.613281 L 141.28125 74.070312 C 141.28125 74.070312 135.140625 81.242188 129.171875 75.113281 C 126.191406 72.046875 126.742188 69.371094 128.035156 67.460938 C 129.503906 65.289062 132.023438 64.09375 134.640625 64.011719 C 138.640625 63.890625 144.183594 64.40625 144.183594 64.40625 C 148.730469 64.261719 152.058594 66.441406 152.058594 66.441406 C 154.789062 70.382812 148.046875 78.617188 146.152344 78.488281 Z M 156.894531 57.226562 L 155.191406 63.179688 C 154.984375 63.910156 154.140625 64.246094 153.484375 63.859375 C 150.785156 62.28125 148.144531 62.300781 148.144531 62.300781 L 143.058594 61.925781 C 143.058594 61.925781 130 59.914062 122.886719 64.101562 C 116.996094 67.570312 112.265625 50.667969 112.265625 50.667969 L 106.707031 51.945312 C 113.46875 80.371094 124.507812 86.332031 143.058594 85.054688 C 159.402344 83.933594 156.894531 57.226562 156.894531 57.226562 "/>
<path style=" stroke:none;fill-rule:nonzero;fill:rgb(95.289612%,46.669006%,16.468811%);fill-opacity:1;" d="M 109.773438 49.832031 C 109.574219 47.015625 108.148438 44.367188 105.769531 42.847656 C 103.5625 41.4375 100.71875 41.082031 98.183594 45.292969 C 93.105469 53.722656 101.328125 59.351562 105.089844 58.867188 C 106.066406 58.742188 106.964844 58.054688 107.71875 57.164062 C 109.289062 55.3125 109.992188 52.875 109.820312 50.453125 L 109.773438 49.832031 "/>
<path style=" stroke:none;fill-rule:nonzero;fill:rgb(55.688477%,21.179199%,10.978699%);fill-opacity:1;" d="M 106.707031 51.945312 C 106.707031 51.945312 107.183594 42.476562 99.746094 47.816406 C 99.746094 47.816406 102.171875 46.722656 104.207031 47.796875 C 104.316406 49.070312 104.230469 51.550781 102.140625 52.996094 C 102.140625 52.996094 105.335938 51.527344 105.34375 48.722656 C 105.945312 49.429688 106.441406 50.449219 106.707031 51.945312 "/>
<path style=" stroke:none;fill-rule:nonzero;fill:rgb(85.879517%,29.40979%,12.159729%);fill-opacity:1;" d="M 146.308594 39.464844 C 146.308594 39.464844 143.902344 50.558594 148.71875 54.773438 C 153.535156 58.984375 149.300781 62.90625 143.652344 60.59375 C 143.652344 60.59375 142.632812 61.085938 140.476562 60.949219 C 138.320312 60.808594 137.433594 56.105469 140.984375 56.175781 C 140.984375 56.175781 142.503906 40.03125 146.308594 39.464844 "/>
<path style=" stroke:none;fill-rule:nonzero;fill:rgb(25.489807%,9.408569%,7.839966%);fill-opacity:1;" d="M 122.722656 37.128906 L 123.835938 40.078125 C 123.835938 40.078125 131.144531 36.417969 139.847656 38.523438 L 139.847656 32.945312 C 139.847656 32.945312 131.53125 31.441406 122.722656 37.128906 "/>
<path style=" stroke:none;fill-rule:nonzero;fill:rgb(25.489807%,9.408569%,7.839966%);fill-opacity:1;" d="M 149.546875 34.746094 C 148.984375 34.914062 149.546875 39.453125 149.546875 39.453125 C 149.546875 39.453125 155.019531 39.453125 156.917969 41.453125 L 157.652344 37.25 C 157.652344 37.25 153.710938 33.511719 149.546875 34.746094 "/>
<path style=" stroke:none;fill-rule:nonzero;fill:rgb(6.269836%,5.879211%,5.099487%);fill-opacity:1;" d="M 108.167969 45.179688 L 123.507812 40.332031 L 123.507812 43.296875 L 108.976562 46.625 L 108.167969 45.179688 "/>
<path style=" stroke:none;fill-rule:nonzero;fill:rgb(74.899292%,62.748718%,46.669006%);fill-opacity:1;" d="M 133.316406 55.019531 C 130.996094 55.019531 129.125 54.179688 128.445312 53.601562 C 126.105469 51.589844 125.335938 48.683594 126.167969 44.960938 C 127.074219 40.886719 133.707031 40.832031 133.769531 40.832031 L 133.773438 40.832031 C 136.742188 40.832031 138.960938 41.601562 140.371094 43.113281 C 142.09375 44.960938 142.003906 47.335938 141.996094 47.507812 C 141.34375 51.59375 139.242188 52.945312 139.222656 52.957031 L 139.203125 52.96875 C 137.203125 54.511719 135.121094 55.019531 133.316406 55.019531 M 132.851562 43.121094 C 132.347656 43.226562 131.851562 43.382812 131.378906 43.585938 C 130.167969 44.109375 128.675781 44.957031 128.445312 46.066406 L 128.441406 46.105469 C 128.441406 46.105469 130.367188 48.53125 133.730469 48.53125 C 135.320312 48.53125 137.226562 47.988281 139.410156 46.398438 C 139.410156 46.398438 138.679688 44.523438 136.582031 43.546875 C 136.582031 43.542969 136.582031 43.542969 136.578125 43.542969 C 136.015625 42.984375 135.25 42.652344 134.445312 42.652344 C 134.226562 42.652344 134.007812 42.675781 133.785156 42.726562 C 133.441406 42.804688 133.128906 42.945312 132.851562 43.121094 "/>
<path style=" stroke:none;fill-rule:nonzero;fill:rgb(6.269836%,5.879211%,5.099487%);fill-opacity:1;" d="M 133.773438 40.832031 L 133.769531 40.832031 C 133.707031 40.832031 127.074219 40.886719 126.167969 44.960938 C 125.335938 48.683594 126.105469 51.589844 128.445312 53.601562 C 129.648438 54.636719 134.640625 56.488281 139.203125 52.96875 L 139.222656 52.957031 C 139.242188 52.945312 141.34375 51.59375 141.996094 47.507812 C 142.003906 47.335938 142.09375 44.960938 140.371094 43.113281 C 138.960938 41.601562 136.742188 40.832031 133.773438 40.832031 M 133.316406 55.546875 C 130.855469 55.546875 128.875 54.632812 128.117188 53.980469 C 125.660156 51.871094 124.816406 48.714844 125.671875 44.851562 C 126.667969 40.382812 133.476562 40.332031 133.769531 40.332031 L 133.773438 40.332031 C 136.890625 40.332031 139.238281 41.152344 140.746094 42.777344 C 142.671875 44.847656 142.503906 47.441406 142.5 47.554688 L 142.496094 47.574219 C 141.824219 51.800781 139.703125 53.246094 139.5 53.378906 C 137.386719 55.003906 135.210938 55.546875 133.316406 55.546875 "/>
<path style=" stroke:none;fill-rule:nonzero;fill:rgb(6.269836%,5.879211%,5.099487%);fill-opacity:1;" d="M 122.171875 41.390625 L 122.300781 42.761719 C 122.335938 43.128906 122.625 43.421875 122.992188 43.457031 L 123.050781 43.464844 C 123.375 43.496094 123.644531 43.726562 123.722656 44.042969 L 123.976562 45.027344 C 124.089844 45.464844 124.546875 45.710938 124.976562 45.570312 C 125.257812 45.480469 125.546875 45.390625 125.835938 45.3125 C 125.863281 45.179688 125.890625 45.042969 125.917969 44.90625 C 126.882812 40.582031 133.769531 40.582031 133.769531 40.582031 C 138.863281 40.582031 140.90625 42.816406 141.71875 44.75 C 141.972656 44.78125 142.1875 44.8125 142.359375 44.835938 C 142.660156 44.878906 142.957031 44.738281 143.121094 44.480469 L 143.996094 43.089844 C 144.230469 42.726562 144.121094 42.246094 143.757812 42.019531 C 136.335938 37.371094 125.460938 39.839844 122.742188 40.566406 C 122.375 40.667969 122.132812 41.011719 122.171875 41.390625 "/>
<path style=" stroke:none;fill-rule:nonzero;fill:rgb(80.778503%,93.728638%,97.648621%);fill-opacity:1;" d="M 157.15625 55.019531 C 157.09375 55.019531 157.03125 55.019531 156.96875 55.019531 C 157.039062 52.804688 157.113281 50.609375 157.335938 48.363281 C 158.078125 47.328125 158.707031 46.246094 159.230469 45.136719 L 164.015625 44.121094 C 164.136719 44.382812 164.238281 44.660156 164.304688 44.960938 C 165.132812 48.683594 164.367188 51.589844 162.027344 53.601562 C 161.347656 54.179688 159.476562 55.019531 157.15625 55.019531 M 160.238281 42.644531 C 160.371094 42.265625 160.488281 41.882812 160.597656 41.5 C 161.074219 41.65625 161.546875 41.855469 161.988281 42.105469 L 160.238281 42.644531 "/>
<path style=" stroke:none;fill-rule:nonzero;fill:rgb(18.818665%,29.798889%,36.859131%);fill-opacity:1;" d="M 159.230469 45.136719 C 159.621094 44.320312 159.953125 43.488281 160.238281 42.644531 L 161.988281 42.105469 C 162.84375 42.578125 163.585938 43.226562 164.015625 44.121094 L 159.230469 45.136719 "/>
<path style=" stroke:none;fill-rule:nonzero;fill:rgb(33.329773%,34.118652%,35.688782%);fill-opacity:1;" d="M 157.335938 48.363281 C 157.496094 46.761719 157.734375 45.132812 158.105469 43.453125 C 158.277344 42.671875 158.398438 41.847656 158.476562 40.992188 C 159.113281 41.089844 159.859375 41.25 160.597656 41.5 C 160.488281 41.882812 160.371094 42.265625 160.238281 42.644531 C 159.953125 43.488281 159.621094 44.320312 159.230469 45.136719 C 158.707031 46.246094 158.078125 47.328125 157.335938 48.363281 "/>
<path style=" stroke:none;fill-rule:nonzero;fill:rgb(74.899292%,62.748718%,46.669006%);fill-opacity:1;" d="M 156.96875 55.019531 C 155.207031 54.984375 153.199219 54.460938 151.269531 52.96875 L 151.25 52.957031 C 151.226562 52.945312 149.128906 51.59375 148.476562 47.507812 C 148.472656 47.476562 148.46875 47.371094 148.472656 47.207031 C 149.203125 48.011719 149.921875 48.574219 150.613281 48.957031 C 151.527344 49.472656 152.394531 49.660156 153.179688 49.660156 C 153.773438 49.660156 154.320312 49.550781 154.804688 49.386719 C 156.164062 48.933594 157.019531 48.066406 157.019531 48.066406 L 157.027344 48.027344 C 157.039062 46.898438 155.957031 45.816406 155.050781 45.105469 C 154.914062 45 154.78125 44.902344 154.636719 44.8125 L 154.621094 44.796875 C 154.460938 44.65625 154.28125 44.53125 154.089844 44.429688 C 153.902344 44.339844 153.714844 44.273438 153.519531 44.234375 C 153.09375 44.082031 152.648438 43.988281 152.191406 43.984375 C 152.164062 43.984375 152.136719 43.984375 152.109375 43.984375 C 150.585938 43.984375 149.480469 44.722656 148.785156 45.402344 C 149.015625 44.671875 149.414062 43.851562 150.097656 43.113281 C 151.417969 41.699219 153.449219 40.933594 156.136719 40.84375 C 156.433594 41.023438 156.699219 41.226562 156.917969 41.453125 L 157.019531 40.847656 C 157.335938 40.863281 157.855469 40.898438 158.476562 40.992188 C 158.398438 41.847656 158.277344 42.671875 158.105469 43.453125 C 157.734375 45.132812 157.496094 46.761719 157.335938 48.363281 C 157.113281 50.609375 157.039062 52.804688 156.96875 55.019531 "/>
<path style=" stroke:none;fill-rule:nonzero;fill:rgb(33.329773%,34.118652%,35.688782%);fill-opacity:1;" d="M 156.917969 41.453125 C 156.699219 41.226562 156.433594 41.023438 156.136719 40.84375 C 156.320312 40.835938 156.507812 40.832031 156.699219 40.832031 C 156.707031 40.832031 156.824219 40.835938 157.019531 40.847656 L 156.917969 41.453125 "/>
<path style=" stroke:none;fill-rule:nonzero;fill:rgb(6.269836%,5.879211%,5.099487%);fill-opacity:1;" d="M 150.097656 43.113281 C 148.378906 44.960938 148.464844 47.335938 148.476562 47.507812 C 149.128906 51.59375 151.226562 52.945312 151.25 52.957031 L 151.269531 52.96875 C 155.832031 56.488281 160.820312 54.636719 162.027344 53.601562 C 164.367188 51.589844 165.132812 48.683594 164.304688 44.960938 C 163.398438 40.886719 156.765625 40.832031 156.699219 40.832031 C 153.730469 40.832031 151.507812 41.601562 150.097656 43.113281 M 150.972656 53.378906 C 150.769531 53.246094 148.644531 51.800781 147.976562 47.574219 L 147.972656 47.554688 C 147.96875 47.441406 147.800781 44.847656 149.722656 42.777344 C 151.230469 41.152344 153.578125 40.332031 156.699219 40.332031 C 156.996094 40.332031 163.800781 40.382812 164.796875 44.851562 C 165.65625 48.714844 164.8125 51.871094 162.351562 53.980469 C 161.597656 54.632812 159.613281 55.546875 157.15625 55.546875 C 155.261719 55.546875 153.085938 55.003906 150.972656 53.378906 "/>
<path style=" stroke:none;fill-rule:nonzero;fill:rgb(6.269836%,5.879211%,5.099487%);fill-opacity:1;" d="M 168.296875 41.390625 L 168.171875 42.761719 C 168.136719 43.128906 167.84375 43.421875 167.480469 43.457031 L 167.417969 43.464844 C 167.097656 43.496094 166.828125 43.726562 166.746094 44.042969 L 166.492188 45.027344 C 166.382812 45.464844 165.921875 45.710938 165.492188 45.570312 C 165.210938 45.480469 164.925781 45.390625 164.636719 45.3125 C 164.609375 45.179688 164.582031 45.042969 164.550781 44.90625 C 163.589844 40.582031 156.699219 40.582031 156.699219 40.582031 C 151.609375 40.582031 149.566406 42.816406 148.75 44.75 C 148.5 44.78125 148.285156 44.8125 148.109375 44.835938 C 147.808594 44.878906 147.511719 44.738281 147.351562 44.480469 L 146.472656 43.089844 C 146.242188 42.726562 146.351562 42.246094 146.714844 42.019531 C 154.132812 37.371094 165.011719 39.839844 167.726562 40.566406 C 168.097656 40.667969 168.335938 41.011719 168.296875 41.390625 "/>
<path style=" stroke:none;fill-rule:nonzero;fill:rgb(6.269836%,5.879211%,5.099487%);fill-opacity:1;" d="M 147.941406 46.671875 C 145.003906 44.066406 142.660156 46.523438 142.5625 46.632812 L 141.726562 45.855469 C 141.757812 45.820312 144.933594 42.480469 148.695312 45.816406 L 147.941406 46.671875 "/>
<path style=" stroke:none;fill-rule:nonzero;fill:rgb(6.269836%,5.879211%,5.099487%);fill-opacity:1;" d="M 147.929688 43.824219 C 144.886719 42.800781 142.300781 43.800781 142.28125 43.808594 L 141.71875 42.394531 C 141.84375 42.347656 144.851562 41.183594 148.414062 42.382812 L 147.929688 43.824219 "/>
<path style=" stroke:none;fill-rule:nonzero;fill:rgb(100%,100%,100%);fill-opacity:1;" d="M 139.410156 46.398438 C 132.609375 51.355469 128.441406 46.105469 128.441406 46.105469 L 128.445312 46.066406 C 128.675781 44.957031 130.167969 44.109375 131.378906 43.585938 C 132.507812 43.105469 133.75 42.863281 134.953125 43.058594 C 138.316406 43.585938 139.410156 46.398438 139.410156 46.398438 "/>
<path style=" stroke:none;fill-rule:nonzero;fill:rgb(18.818665%,9.01947%,7.449341%);fill-opacity:1;" d="M 136.925781 47.835938 C 135.355469 48.503906 133.96875 48.621094 132.800781 48.464844 C 132.277344 48.097656 131.855469 47.5625 131.628906 46.914062 C 131.578125 46.785156 131.542969 46.65625 131.511719 46.519531 C 131.390625 45.992188 131.402344 45.46875 131.53125 44.980469 C 131.71875 44.214844 132.1875 43.550781 132.84375 43.125 C 133.121094 42.945312 133.4375 42.804688 133.785156 42.726562 C 134.816406 42.488281 135.855469 42.828125 136.578125 43.542969 C 137.007812 43.960938 137.335938 44.519531 137.484375 45.160156 C 137.707031 46.136719 137.464844 47.113281 136.925781 47.835938 "/>
<path style=" stroke:none;fill-rule:nonzero;fill:rgb(6.269836%,5.879211%,5.099487%);fill-opacity:1;" d="M 133.003906 46.3125 C 133.195312 47.148438 134.003906 47.675781 134.808594 47.496094 C 135.613281 47.3125 136.109375 46.480469 135.914062 45.644531 C 135.726562 44.808594 134.921875 44.277344 134.113281 44.460938 C 133.308594 44.640625 132.8125 45.472656 133.003906 46.3125 "/>
<path style=" stroke:none;fill-rule:nonzero;fill:rgb(95.689392%,96.078491%,95.689392%);fill-opacity:1;" d="M 131.632812 46.917969 C 131.351562 46.773438 131.132812 46.5 131.054688 46.164062 C 130.941406 45.683594 131.152344 45.207031 131.535156 44.972656 C 131.53125 44.976562 131.53125 44.980469 131.53125 44.980469 C 131.402344 45.46875 131.390625 45.992188 131.511719 46.519531 C 131.542969 46.65625 131.578125 46.785156 131.628906 46.914062 C 131.632812 46.914062 131.632812 46.917969 131.632812 46.917969 "/>
<path style=" stroke:none;fill-rule:nonzero;fill:rgb(82.749939%,80.389404%,78.819275%);fill-opacity:1;" d="M 132.113281 47.035156 C 131.941406 47.035156 131.777344 46.992188 131.632812 46.917969 C 131.632812 46.917969 131.632812 46.914062 131.628906 46.914062 C 131.578125 46.785156 131.542969 46.65625 131.511719 46.519531 C 131.390625 45.992188 131.402344 45.46875 131.53125 44.980469 C 131.53125 44.980469 131.53125 44.976562 131.535156 44.972656 C 131.625 44.914062 131.734375 44.867188 131.847656 44.839844 C 131.921875 44.824219 132 44.816406 132.078125 44.816406 C 132.484375 44.816406 132.863281 45.0625 133.046875 45.441406 C 132.957031 45.710938 132.933594 46.007812 133.003906 46.3125 C 133.015625 46.359375 133.03125 46.40625 133.042969 46.453125 C 132.90625 46.726562 132.65625 46.9375 132.339844 47.011719 C 132.265625 47.027344 132.1875 47.035156 132.113281 47.035156 "/>
<path style=" stroke:none;fill-rule:nonzero;fill:rgb(79.219055%,79.60968%,78.42865%);fill-opacity:1;" d="M 133.042969 46.453125 C 133.03125 46.40625 133.015625 46.359375 133.003906 46.3125 C 132.933594 46.007812 132.957031 45.710938 133.046875 45.441406 C 133.085938 45.519531 133.113281 45.601562 133.132812 45.6875 C 133.191406 45.957031 133.15625 46.222656 133.042969 46.453125 "/>
<path style=" stroke:none;fill-rule:nonzero;fill:rgb(85.879517%,29.40979%,12.159729%);fill-opacity:1;" d="M 139.410156 46.398438 C 139.410156 46.398438 138.316406 43.585938 134.953125 43.058594 C 133.75 42.863281 132.507812 43.105469 131.378906 43.585938 C 130.167969 44.109375 128.675781 44.957031 128.445312 46.066406 C 128.421875 45.675781 128.382812 42.546875 131.957031 41.484375 C 135.773438 40.347656 138.765625 42.476562 139.410156 46.398438 "/>
<path style=" stroke:none;fill-rule:nonzero;fill:rgb(100%,100%,100%);fill-opacity:1;" d="M 157.027344 48.027344 L 157.019531 48.066406 C 157.019531 48.066406 156.164062 48.933594 154.804688 49.386719 C 153.6875 49.761719 152.222656 49.859375 150.613281 48.957031 C 149.738281 48.472656 148.824219 47.703125 147.894531 46.519531 C 147.894531 46.519531 149.3125 43.9375 152.191406 43.984375 C 152.648438 43.988281 153.09375 44.082031 153.519531 44.234375 C 153.902344 44.371094 154.273438 44.5625 154.621094 44.796875 L 154.636719 44.8125 C 154.78125 44.902344 154.914062 45 155.050781 45.105469 C 155.957031 45.816406 157.039062 46.898438 157.027344 48.027344 "/>
<path style=" stroke:none;fill-rule:nonzero;fill:rgb(18.818665%,9.01947%,7.449341%);fill-opacity:1;" d="M 155.277344 48.53125 C 155.230469 48.652344 155.175781 48.789062 155.109375 48.902344 C 155.023438 49.070312 154.917969 49.234375 154.804688 49.386719 C 153.6875 49.761719 152.222656 49.859375 150.613281 48.957031 L 150.558594 48.917969 C 150.414062 48.558594 150.335938 48.164062 150.320312 47.75 C 150.304688 47.238281 150.390625 46.707031 150.589844 46.195312 C 150.640625 46.058594 150.703125 45.925781 150.773438 45.804688 C 150.996094 45.378906 151.289062 45.019531 151.628906 44.757812 C 152.195312 44.300781 152.871094 44.117188 153.519531 44.234375 C 153.714844 44.273438 153.902344 44.339844 154.089844 44.429688 C 154.28125 44.53125 154.460938 44.65625 154.621094 44.796875 L 154.796875 44.972656 C 155.261719 45.5 155.527344 46.230469 155.546875 47.015625 C 155.558594 47.519531 155.476562 48.03125 155.277344 48.53125 "/>
<path style=" stroke:none;fill-rule:nonzero;fill:rgb(6.269836%,5.879211%,5.099487%);fill-opacity:1;" d="M 154.082031 48.074219 C 153.773438 48.867188 153.007812 49.25 152.375 48.9375 C 151.746094 48.621094 151.484375 47.726562 151.796875 46.9375 C 152.105469 46.144531 152.871094 45.757812 153.5 46.074219 C 154.132812 46.386719 154.390625 47.285156 154.082031 48.074219 "/>
<path style=" stroke:none;fill-rule:nonzero;fill:rgb(95.689392%,96.078491%,95.689392%);fill-opacity:1;" d="M 150.320312 47.757812 C 150.015625 47.46875 149.917969 46.9375 150.101562 46.464844 C 150.238281 46.117188 150.492188 45.882812 150.773438 45.800781 C 150.773438 45.804688 150.773438 45.804688 150.773438 45.804688 C 150.703125 45.925781 150.640625 46.058594 150.589844 46.195312 C 150.390625 46.707031 150.304688 47.238281 150.320312 47.75 C 150.320312 47.753906 150.320312 47.753906 150.320312 47.757812 "/>
<path style=" stroke:none;fill-rule:nonzero;fill:rgb(82.749939%,80.389404%,78.819275%);fill-opacity:1;" d="M 150.847656 47.976562 C 150.734375 47.976562 150.621094 47.949219 150.515625 47.894531 C 150.445312 47.859375 150.378906 47.816406 150.320312 47.757812 C 150.320312 47.753906 150.320312 47.753906 150.320312 47.75 C 150.304688 47.238281 150.390625 46.707031 150.589844 46.195312 C 150.640625 46.058594 150.703125 45.925781 150.773438 45.804688 C 150.773438 45.804688 150.773438 45.804688 150.773438 45.800781 C 150.847656 45.78125 150.917969 45.773438 150.992188 45.773438 C 151.101562 45.773438 151.210938 45.800781 151.320312 45.851562 C 151.660156 46.019531 151.847656 46.429688 151.828125 46.859375 C 151.816406 46.886719 151.808594 46.910156 151.796875 46.9375 C 151.734375 47.089844 151.695312 47.25 151.675781 47.40625 C 151.492188 47.761719 151.171875 47.976562 150.847656 47.976562 "/>
<path style=" stroke:none;fill-rule:nonzero;fill:rgb(79.219055%,79.60968%,78.42865%);fill-opacity:1;" d="M 151.675781 47.40625 C 151.695312 47.25 151.734375 47.089844 151.796875 46.9375 C 151.808594 46.910156 151.816406 46.886719 151.828125 46.859375 C 151.820312 47 151.785156 47.144531 151.734375 47.28125 C 151.71875 47.324219 151.699219 47.367188 151.675781 47.40625 "/>
<path style=" stroke:none;fill-rule:nonzero;fill:rgb(85.879517%,29.40979%,12.159729%);fill-opacity:1;" d="M 147.894531 46.519531 C 147.894531 46.519531 149.300781 44.15625 152.179688 44.203125 C 153.207031 44.210938 154.207031 44.441406 155.050781 45.101562 C 155.957031 45.820312 157.039062 46.898438 157.023438 48.03125 C 157.117188 47.648438 157.714844 44.582031 154.957031 42.941406 C 152.007812 41.183594 149.144531 42.769531 147.894531 46.519531 "/>
<path style=" stroke:none;fill-rule:nonzero;fill:rgb(49.01886%,17.649841%,12.939453%);fill-opacity:1;" d="M 150.398438 66.351562 C 150.613281 68.148438 147.585938 73.292969 141.304688 72.34375 C 135.0625 71.367188 134.800781 65.632812 134.800781 65.632812 L 135.734375 65.660156 L 149.550781 66.324219 L 150.398438 66.351562 "/>
<path style=" stroke:none;fill-rule:nonzero;fill:rgb(100%,100%,100%);fill-opacity:1;" d="M 149.550781 66.324219 C 149.519531 67.269531 149.132812 68.132812 148.269531 68.5 C 146.003906 69.40625 138.496094 69.03125 136.699219 67.839844 C 136.035156 67.398438 135.800781 66.414062 135.734375 65.660156 L 149.550781 66.324219 "/>
<path style=" stroke:none;fill-rule:nonzero;fill:rgb(85.879517%,29.40979%,12.159729%);fill-opacity:1;" d="M 140.097656 153.8125 C 140.097656 153.8125 95.617188 160.375 88.886719 159.695312 C 86.148438 159.421875 81.226562 156.765625 77.746094 153.644531 C 81.195312 155.976562 85.183594 157.746094 87.578125 157.945312 C 93.886719 158.476562 129.828125 152.992188 140.230469 151.65625 L 140.097656 153.8125 "/>
<path style=" stroke:none;fill-rule:nonzero;fill:rgb(95.289612%,46.669006%,16.468811%);fill-opacity:1;" d="M 140.230469 151.65625 C 129.828125 152.992188 93.886719 158.476562 87.578125 157.945312 C 85.183594 157.746094 81.195312 155.976562 77.746094 153.644531 C 75.285156 151.453125 73.535156 149.035156 73.738281 147.039062 C 73.769531 146.746094 73.878906 146.449219 74.0625 146.15625 C 74.757812 144.988281 78.039062 141.671875 78.039062 141.671875 C 81.789062 139.554688 86.1875 139.558594 90.765625 139.335938 C 93.652344 139.199219 98.234375 139.277344 105.292969 139.816406 C 107.816406 140.015625 110.488281 140.261719 113.203125 140.570312 C 128.976562 142.25 140.582031 145.683594 140.582031 145.683594 L 140.230469 151.65625 "/>
<path style=" stroke:none;fill-rule:nonzero;fill:rgb(22.349548%,22.349548%,22.749329%);fill-opacity:1;" d="M 165.148438 161.824219 C 165.101562 162.398438 164.953125 162.949219 164.707031 163.480469 C 160.820312 165.136719 155.902344 165.933594 150.628906 165.519531 C 144.773438 165.0625 139.578125 163.1875 135.90625 160.542969 C 135.855469 160.210938 135.84375 159.875 135.871094 159.53125 C 136.226562 155.023438 143.0625 151.890625 151.144531 152.523438 C 159.230469 153.15625 165.5 157.316406 165.148438 161.824219 "/>
<path style=" stroke:none;fill-rule:nonzero;fill:rgb(95.289612%,46.669006%,16.468811%);fill-opacity:1;" d="M 162.628906 150.277344 L 159.761719 151.316406 L 158.285156 151.855469 L 158.132812 151.917969 L 156.660156 152.457031 L 156.585938 152.484375 L 153.015625 153.78125 L 152.464844 153.984375 L 152.375 154.019531 L 151.492188 154.335938 L 149.796875 154.953125 C 149.796875 154.953125 149.730469 154.96875 149.613281 154.980469 L 149.542969 154.996094 C 149.4375 155.023438 149.285156 155.042969 149.101562 155.058594 C 148.75 154.324219 148.175781 153.722656 147.75 153.324219 C 136.699219 153.238281 135.6875 148.507812 135.601562 147.964844 C 135.855469 146.359375 138.253906 145.164062 144.71875 145.089844 C 157.195312 144.945312 162.628906 150.277344 162.628906 150.277344 "/>
<path style=" stroke:none;fill-rule:nonzero;fill:rgb(85.879517%,29.40979%,12.159729%);fill-opacity:1;" d="M 164.296875 164.71875 C 163.9375 165.03125 163.488281 165.125 162.941406 164.921875 C 159.097656 163.503906 161.636719 155.269531 161.636719 155.269531 C 158.125 152.9375 156.515625 149.285156 156.515625 149.285156 L 160.714844 149.96875 L 156.714844 149.632812 C 156.714844 149.632812 158.589844 153.15625 162.289062 155.210938 C 162.289062 155.210938 160.410156 163.554688 164.296875 164.71875 "/>
<path style=" stroke:none;fill-rule:nonzero;fill:rgb(95.289612%,46.669006%,16.468811%);fill-opacity:1;" d="M 164.296875 164.71875 C 160.410156 163.554688 162.289062 155.210938 162.289062 155.210938 C 158.589844 153.15625 156.714844 149.632812 156.714844 149.632812 L 160.714844 149.96875 L 162.628906 150.277344 L 164.804688 152.429688 C 165.371094 152.980469 165.703125 153.722656 165.734375 154.507812 C 165.882812 157.164062 166 163.296875 164.296875 164.71875 "/>
<path style=" stroke:none;fill-rule:nonzero;fill:rgb(85.879517%,29.40979%,12.159729%);fill-opacity:1;" d="M 159.902344 165.960938 C 159.835938 165.996094 159.746094 166.03125 159.667969 166.046875 C 157.664062 166.488281 155.457031 163.90625 157.335938 158.542969 C 157.335938 158.542969 157.320312 155.421875 156.808594 153.058594 C 157.582031 155.382812 157.902344 158.660156 157.902344 158.660156 C 156.753906 163.234375 158.246094 165.644531 159.902344 165.960938 "/>
<path style=" stroke:none;fill-rule:nonzero;fill:rgb(95.289612%,46.669006%,16.468811%);fill-opacity:1;" d="M 159.902344 165.960938 C 158.246094 165.644531 156.753906 163.234375 157.902344 158.660156 C 157.902344 158.660156 157.582031 155.382812 156.808594 153.058594 C 156.597656 152.074219 156.300781 151.214844 155.882812 150.777344 C 155.421875 150.292969 155.496094 149.855469 155.8125 149.496094 L 155.824219 149.476562 C 156.082031 149.195312 156.480469 148.949219 156.878906 148.765625 C 157.042969 148.683594 157.210938 148.609375 157.34375 148.558594 C 157.496094 148.492188 157.640625 148.4375 157.765625 148.398438 C 157.992188 148.328125 158.136719 148.285156 158.136719 148.285156 C 158.257812 148.511719 159.164062 150.101562 160.03125 151.851562 C 160.875 153.527344 161.675781 155.339844 161.734375 156.230469 C 161.847656 157.964844 161.699219 165.003906 159.902344 165.960938 "/>
<path style=" stroke:none;fill-rule:nonzero;fill:rgb(85.879517%,29.40979%,12.159729%);fill-opacity:1;" d="M 155.792969 164.273438 C 155.476562 164.453125 155.121094 164.488281 154.734375 164.351562 C 152.394531 163.492188 152.492188 160.058594 153.753906 158.175781 C 154.535156 157.027344 153.097656 154.878906 151.886719 153.402344 C 153.289062 154.777344 154.886719 156.710938 154.332031 158.019531 C 153.476562 160.074219 153.816406 163.367188 155.792969 164.273438 "/>
<path style=" stroke:none;fill-rule:nonzero;fill:rgb(95.289612%,46.669006%,16.468811%);fill-opacity:1;" d="M 158.433594 157.171875 C 158.191406 158.953125 157.414062 163.363281 155.792969 164.273438 C 153.816406 163.367188 153.476562 160.074219 154.332031 158.019531 C 154.886719 156.710938 153.289062 154.777344 151.886719 153.402344 L 151.867188 153.378906 C 151.125 152.472656 150.46875 151.824219 150.46875 151.824219 L 154.378906 149.332031 L 154.449219 149.292969 C 154.449219 149.292969 154.625 149.519531 154.902344 149.917969 L 154.960938 149.996094 C 156.085938 151.609375 158.671875 155.507812 158.433594 157.171875 "/>
<path style=" stroke:none;fill-rule:nonzero;fill:rgb(85.879517%,29.40979%,12.159729%);fill-opacity:1;" d="M 151.675781 163.0625 C 151.542969 163.117188 151.40625 163.117188 151.257812 163.0625 C 150.863281 162.910156 150.484375 162.679688 150.144531 162.375 L 150.042969 162.289062 C 148.988281 161.273438 148.390625 159.597656 149.011719 157.847656 L 149.011719 157.835938 C 149.0625 157.722656 149.117188 157.597656 149.167969 157.476562 C 149.570312 156.597656 149.441406 155.769531 149.101562 155.058594 C 148.75 154.324219 148.175781 153.722656 147.75 153.324219 C 147.410156 153.019531 147.152344 152.847656 147.152344 152.847656 C 147.152344 152.847656 147.535156 153.007812 148.015625 153.332031 C 148.289062 153.515625 148.59375 153.746094 148.882812 154.023438 L 148.953125 154.09375 C 149.207031 154.359375 149.433594 154.644531 149.613281 154.980469 C 149.890625 155.503906 150.035156 156.128906 149.882812 156.835938 C 149.863281 156.949219 149.832031 157.085938 149.789062 157.214844 L 149.777344 157.242188 C 149.75 157.328125 149.710938 157.421875 149.667969 157.515625 C 149.175781 158.632812 149.175781 159.734375 149.484375 160.671875 C 149.625 161.089844 149.839844 161.484375 150.101562 161.824219 L 150.101562 161.832031 C 150.277344 162.0625 150.464844 162.261719 150.671875 162.449219 C 150.976562 162.707031 151.324219 162.917969 151.675781 163.0625 "/>
<path style=" stroke:none;fill-rule:nonzero;fill:rgb(95.289612%,46.669006%,16.468811%);fill-opacity:1;" d="M 154.367188 155.652344 C 154.328125 156.28125 153.246094 162.585938 151.675781 163.0625 C 149.917969 162.367188 148.535156 159.964844 149.667969 157.515625 C 150.808594 155.03125 147.652344 152.886719 147.652344 152.886719 L 149.988281 150.574219 C 150.992188 151.605469 154.390625 155.042969 154.367188 155.652344 "/>
<path style=" stroke:none;fill-rule:nonzero;fill:rgb(94.898987%,67.83905%,47.839355%);fill-opacity:1;" d="M 150.039062 162.367188 C 150.039062 162.367188 150.21875 159.445312 151.832031 159.925781 C 152.933594 160.253906 152.410156 162.664062 152.410156 162.664062 L 150.039062 162.367188 "/>
<path style=" stroke:none;fill-rule:nonzero;fill:rgb(94.898987%,67.83905%,47.839355%);fill-opacity:1;" d="M 154.035156 163.457031 C 154.035156 163.457031 154.429688 160.332031 156.121094 160.964844 C 157.28125 161.394531 156.550781 163.941406 156.550781 163.941406 L 154.035156 163.457031 "/>
<path style=" stroke:none;fill-rule:nonzero;fill:rgb(94.898987%,67.83905%,47.839355%);fill-opacity:1;" d="M 158.140625 164.839844 C 158.140625 164.839844 158.539062 161.714844 160.234375 162.347656 C 161.394531 162.777344 160.660156 165.320312 160.660156 165.320312 L 158.140625 164.839844 "/>
<path style=" stroke:none;fill-rule:nonzero;fill:rgb(94.898987%,67.83905%,47.839355%);fill-opacity:1;" d="M 162.386719 163.792969 C 162.386719 163.792969 162.511719 160.648438 164.257812 161.128906 C 165.449219 161.460938 164.933594 164.058594 164.933594 164.058594 L 162.386719 163.792969 "/>
<path style=" stroke:none;fill-rule:nonzero;fill:rgb(85.879517%,29.40979%,12.159729%);fill-opacity:1;" d="M 149.101562 155.058594 C 147.238281 155.320312 142.054688 155.726562 138.863281 152.96875 C 136.957031 151.332031 135.34375 149.46875 135.601562 147.964844 C 135.6875 148.507812 136.699219 153.238281 147.75 153.324219 C 148.175781 153.722656 148.75 154.324219 149.101562 155.058594 "/>
<path style=" stroke:none;fill-rule:nonzero;fill:rgb(19.999695%,36.079407%,49.01886%);fill-opacity:1;" d="M 107.136719 129.316406 C 107.136719 129.316406 86.773438 130.5625 73.320312 125.546875 C 73.320312 125.546875 91.683594 121.105469 107.136719 129.316406 "/>
<path style=" stroke:none;fill-rule:nonzero;fill:rgb(95.289612%,46.669006%,16.468811%);fill-opacity:1;" d="M 96.015625 88.804688 C 81.167969 89.507812 74.144531 136.898438 73.859375 146.679688 C 73.84375 147.296875 73.859375 148.410156 73.859375 148.410156 L 77.78125 147.296875 L 88.242188 145.308594 C 88.242188 145.308594 97.789062 141.972656 98.425781 141.019531 C 99.398438 139.558594 100.222656 136.734375 101.289062 133.609375 C 102.238281 130.820312 103.308594 127.746094 104.339844 124.863281 C 105.832031 120.628906 107.191406 116.785156 107.8125 114.742188 C 109.621094 108.765625 111.90625 88.054688 96.015625 88.804688 "/>
<path style=" stroke:none;fill-rule:nonzero;fill:rgb(34.118652%,60.778809%,82.749939%);fill-opacity:1;" d="M 107.136719 129.316406 C 107.136719 129.316406 89.175781 121.609375 73.320312 125.546875 C 73.320312 125.546875 81.621094 87.664062 96.714844 87.667969 C 111.625 87.675781 115.796875 110.320312 107.136719 129.316406 "/>
<path style=" stroke:none;fill-rule:nonzero;fill:rgb(62.748718%,63.919067%,63.919067%);fill-opacity:1;" d="M 74.757812 176.582031 C 74.757812 176.582031 67.59375 178.859375 66.023438 205.601562 L 63.183594 205.601562 C 63.183594 205.601562 65.671875 176.757812 74.757812 173.613281 L 74.757812 176.582031 "/>
<path style=" stroke:none;fill-rule:nonzero;fill:rgb(77.249146%,77.648926%,77.648926%);fill-opacity:1;" d="M 76.449219 176.582031 C 76.449219 176.582031 69.285156 178.859375 67.714844 205.601562 L 64.878906 205.601562 C 64.878906 205.601562 67.363281 176.757812 76.449219 173.613281 L 76.449219 176.582031 "/>
<path style=" stroke:none;fill-rule:nonzero;fill:rgb(77.249146%,77.648926%,77.648926%);fill-opacity:1;" d="M 100.996094 180.738281 C 100.996094 180.738281 106.59375 204.378906 101.480469 219.585938 L 103.636719 223.082031 C 103.636719 223.082031 110.027344 210.765625 103.636719 180.738281 L 100.996094 180.738281 "/>
<path style=" stroke:none;fill-rule:nonzero;fill:rgb(77.249146%,77.648926%,77.648926%);fill-opacity:1;" d="M 103.636719 223.082031 L 100.996094 222.5 L 64.632812 207.792969 L 64.878906 205.601562 L 67.714844 205.601562 L 102.542969 218.984375 L 103.636719 223.082031 "/>
<path style=" stroke:none;fill-rule:nonzero;fill:rgb(62.748718%,63.919067%,63.919067%);fill-opacity:1;" d="M 64.878906 205.601562 L 101.480469 219.585938 L 100.996094 222.5 C 100.996094 222.5 69.253906 215.761719 64.109375 209.488281 C 64.109375 209.488281 62.894531 208.320312 63.183594 205.601562 L 64.878906 205.601562 "/>
<path style=" stroke:none;fill-rule:nonzero;fill:rgb(62.748718%,63.919067%,63.919067%);fill-opacity:1;" d="M 99.300781 180.738281 C 99.300781 180.738281 104.898438 204.378906 99.789062 219.585938 L 100.996094 222.5 C 100.996094 222.5 108.332031 210.765625 101.941406 180.738281 L 99.300781 180.738281 "/>
<path style=" stroke:none;fill-rule:nonzero;fill:rgb(82.348633%,52.549744%,11.759949%);fill-opacity:1;" d="M 83.191406 167.984375 C 79.277344 167.902344 75.976562 171.230469 76.375 175.121094 C 76.46875 176.050781 76.78125 176.9375 77.4375 177.636719 C 80.054688 180.429688 104.5625 182.835938 104.5625 182.835938 C 104.5625 182.835938 106.4375 174.140625 102.59375 172.214844 C 99.796875 170.816406 89.8125 168.117188 83.191406 167.984375 "/>
<path style=" stroke:none;fill-rule:nonzero;fill:rgb(82.348633%,52.549744%,11.759949%);fill-opacity:1;" d="M 98.691406 183.050781 L 104.5625 182.835938 L 102.664062 179.425781 L 98.472656 180.210938 L 98.691406 183.050781 "/>
<path style=" stroke:none;fill-rule:nonzero;fill:rgb(97.24884%,63.139343%,14.509583%);fill-opacity:1;" d="M 78.414062 167.984375 C 74.503906 167.902344 71.199219 171.230469 71.597656 175.121094 C 71.695312 176.050781 72.007812 176.9375 72.660156 177.636719 C 75.28125 180.429688 98.691406 183.050781 98.691406 183.050781 C 98.691406 183.050781 101.660156 174.140625 97.820312 172.214844 C 95.023438 170.816406 85.039062 168.117188 78.414062 167.984375 "/>
<path style=" stroke:none;fill-rule:nonzero;fill:rgb(84.309387%,26.669312%,12.548828%);fill-opacity:1;" d="M 214.902344 344.308594 L 207.148438 344.308594 L 207.148438 198.28125 L 214.902344 198.28125 L 214.902344 344.308594 "/>
<path style=" stroke:none;fill-rule:nonzero;fill:rgb(54.508972%,24.708557%,23.139954%);fill-opacity:1;" d="M 218.28125 205.8125 L 203.769531 205.8125 L 202.109375 167.160156 L 219.9375 167.160156 L 218.28125 205.8125 "/>
<path style=" stroke:none;fill-rule:nonzero;fill:rgb(45.878601%,18.818665%,16.468811%);fill-opacity:1;" d="M 217.191406 356.332031 L 204.859375 356.332031 L 204.859375 322.246094 L 217.191406 322.246094 L 217.191406 356.332031 "/>
<path style=" stroke:none;fill-rule:nonzero;fill:rgb(58.428955%,40.779114%,39.608765%);fill-opacity:1;" d="M 330.796875 168.460938 L 112.070312 168.460938 L 112.070312 162.1875 L 330.753906 162.1875 L 330.796875 168.460938 "/>
<path style=" stroke:none;fill-rule:nonzero;fill:rgb(80.389404%,67.449951%,55.288696%);fill-opacity:1;" d="M 138.175781 162.1875 L 138.175781 168.460938 L 42.746094 168.460938 L 42.746094 162.347656 L 138.175781 162.1875 "/>
<path style=" stroke:none;fill-rule:nonzero;fill:rgb(54.508972%,24.708557%,23.139954%);fill-opacity:1;" d="M 224.71875 347.441406 L 197.742188 347.441406 L 142.164062 350.539062 L 142.164062 358.789062 C 142.164062 358.789062 209.003906 367.59375 279.886719 358.789062 L 279.886719 350.539062 L 224.71875 347.441406 "/>
<path style=" stroke:none;fill-rule:nonzero;fill:rgb(52.159119%,55.288696%,61.959839%);fill-opacity:1;" d="M 279.300781 59.519531 L 163.613281 59.519531 C 161.808594 59.519531 160.34375 60.988281 160.34375 62.789062 L 160.34375 130.8125 C 160.34375 132.613281 161.808594 134.082031 163.613281 134.082031 L 279.300781 134.082031 C 281.105469 134.082031 282.570312 132.613281 282.570312 130.8125 L 282.570312 62.789062 C 282.570312 60.988281 281.105469 59.519531 279.300781 59.519531 "/>
<path style=" stroke:none;fill-rule:nonzero;fill:rgb(61.959839%,65.489197%,74.508667%);fill-opacity:1;" d="M 284.503906 59.519531 L 168.8125 59.519531 C 167.011719 59.519531 165.542969 60.988281 165.542969 62.789062 L 165.542969 130.8125 C 165.542969 132.613281 167.011719 134.082031 168.8125 134.082031 L 284.503906 134.082031 C 286.304688 134.082031 287.769531 132.613281 287.769531 130.8125 L 287.769531 62.789062 C 287.769531 60.988281 286.304688 59.519531 284.503906 59.519531 "/>
<path style=" stroke:none;fill-rule:nonzero;fill:rgb(44.309998%,47.44873%,53.729248%);fill-opacity:1;" d="M 254.796875 160.097656 L 223.867188 160.097656 L 216.679688 94.503906 C 216.550781 93.335938 217.464844 92.316406 218.640625 92.316406 L 247.367188 92.316406 L 254.796875 160.097656 "/>
<path style=" stroke:none;fill-rule:nonzero;fill:rgb(52.159119%,55.288696%,61.959839%);fill-opacity:1;" d="M 257.769531 160.097656 L 226.839844 160.097656 L 219.691406 94.894531 C 219.542969 93.515625 220.621094 92.316406 222 92.316406 L 248.257812 92.316406 C 249.441406 92.316406 250.4375 93.207031 250.566406 94.386719 L 257.769531 160.097656 "/>
<path style=" stroke:none;fill-rule:nonzero;fill:rgb(44.309998%,47.44873%,53.729248%);fill-opacity:1;" d="M 271.613281 157.640625 L 191.644531 157.640625 C 190.570312 157.640625 189.695312 158.515625 189.695312 159.59375 L 189.695312 160.710938 C 189.695312 161.785156 190.570312 162.660156 191.644531 162.660156 L 271.613281 162.660156 C 272.691406 162.660156 273.566406 161.785156 273.566406 160.710938 L 273.566406 159.59375 C 273.566406 158.515625 272.691406 157.640625 271.613281 157.640625 "/>
<path style=" stroke:none;fill-rule:nonzero;fill:rgb(52.159119%,55.288696%,61.959839%);fill-opacity:1;" d="M 278.015625 121.863281 L 262.597656 121.863281 L 262.597656 109.226562 L 278.015625 109.226562 L 278.015625 121.863281 "/>
<path style=" stroke:none;fill-rule:nonzero;fill:rgb(44.309998%,47.44873%,53.729248%);fill-opacity:1;" d="M 278.015625 121.863281 L 275.167969 121.863281 L 275.167969 109.226562 L 278.015625 109.226562 L 278.015625 121.863281 "/>
<path style=" stroke:none;fill-rule:nonzero;fill:rgb(91.369629%,90.979004%,90.589905%);fill-opacity:1;" d="M 126.144531 368.945312 C 126.144531 371.816406 104.390625 374.136719 77.554688 374.136719 C 50.714844 374.136719 28.960938 371.816406 28.960938 368.945312 C 28.960938 366.078125 50.714844 363.753906 77.554688 363.753906 C 104.390625 363.753906 126.144531 366.078125 126.144531 368.945312 "/>
<path style=" stroke:none;fill-rule:nonzero;fill:rgb(30.589294%,21.179199%,20.779419%);fill-opacity:1;" d="M 65.566406 307.695312 C 63.65625 307.695312 62.101562 309.292969 62.101562 311.25 L 62.101562 314.195312 C 62.101562 316.15625 63.65625 317.753906 65.566406 317.753906 L 76.804688 317.753906 C 78.714844 317.753906 80.269531 316.15625 80.269531 314.195312 L 80.269531 311.25 C 80.269531 309.292969 78.714844 307.695312 76.804688 307.695312 Z M 76.804688 320.695312 L 65.566406 320.695312 C 62.074219 320.695312 59.230469 317.777344 59.230469 314.195312 L 59.230469 311.25 C 59.230469 307.664062 62.074219 304.75 65.566406 304.75 L 76.804688 304.75 C 80.296875 304.75 83.140625 307.664062 83.140625 311.25 L 83.140625 314.195312 C 83.140625 317.777344 80.296875 320.695312 76.804688 320.695312 "/>
<path style=" stroke:none;fill-rule:nonzero;fill:rgb(52.938843%,16.079712%,10.978699%);fill-opacity:1;" d="M 108.484375 367.058594 L 45.84375 367.058594 L 45.84375 314.558594 L 108.484375 314.558594 L 108.484375 367.058594 "/>
<path style=" stroke:none;fill-rule:nonzero;fill:rgb(65.098572%,18.429565%,12.548828%);fill-opacity:1;" d="M 101.789062 367.058594 L 39.148438 367.058594 L 39.148438 314.558594 L 101.789062 314.558594 L 101.789062 367.058594 "/>
<path style=" stroke:none;fill-rule:nonzero;fill:rgb(65.098572%,16.079712%,12.939453%);fill-opacity:1;" d="M 70.46875 348.660156 C 53.171875 348.660156 39.148438 334.628906 39.148438 317.320312 L 39.148438 314.558594 L 101.789062 314.558594 L 101.789062 317.320312 C 101.789062 334.628906 87.765625 348.660156 70.46875 348.660156 "/>
<path style=" stroke:none;fill-rule:nonzero;fill:rgb(90.589905%,19.999695%,12.939453%);fill-opacity:1;" d="M 100.832031 314.558594 L 100.832031 323.144531 L 38.191406 323.144531 L 38.191406 314.558594 L 100.832031 314.558594 "/>
<path style=" stroke:none;fill-rule:nonzero;fill:rgb(78.039551%,18.429565%,13.729858%);fill-opacity:1;" d="M 100.832031 323.144531 L 100.832031 342.410156 C 100.832031 345.863281 98.105469 348.660156 94.730469 348.660156 L 44.292969 348.660156 C 40.917969 348.660156 38.191406 345.863281 38.191406 342.410156 L 38.191406 323.144531 L 100.832031 323.144531 "/>
<path style=" stroke:none;fill-rule:nonzero;fill:rgb(78.039551%,18.429565%,13.729858%);fill-opacity:1;" d="M 100.832031 323.144531 L 100.832031 342.410156 C 100.832031 345.863281 98.105469 348.660156 94.730469 348.660156 L 44.292969 348.660156 C 40.917969 348.660156 38.191406 345.863281 38.191406 342.410156 L 38.191406 323.144531 L 100.832031 323.144531 "/>
<path style=" stroke:none;fill-rule:nonzero;fill:rgb(78.039551%,78.039551%,59.609985%);fill-opacity:1;" d="M 77.402344 352.011719 L 65.765625 352.011719 L 65.765625 344.980469 L 77.402344 344.980469 L 77.402344 352.011719 "/>
<path style=" stroke:none;fill-rule:nonzero;fill:rgb(98.429871%,98.039246%,73.329163%);fill-opacity:1;" d="M 76.445312 352.011719 L 64.8125 352.011719 L 64.8125 344.980469 L 76.445312 344.980469 L 76.445312 352.011719 "/>
<path style=" stroke:none;fill-rule:nonzero;fill:rgb(72.158813%,11.369324%,13.729858%);fill-opacity:1;" d="M 295.648438 152.789062 L 285.207031 152.789062 L 285.207031 149.527344 L 295.648438 149.527344 L 295.648438 152.789062 "/>
<path style=" stroke:none;fill-rule:nonzero;fill:rgb(67.83905%,67.059326%,67.449951%);fill-opacity:1;" d="M 315.269531 157.035156 L 311.054688 157.035156 L 311.054688 79.585938 C 311.054688 56.582031 292.351562 37.871094 269.363281 37.871094 L 260.953125 37.871094 L 260.953125 33.652344 L 269.363281 33.652344 C 294.675781 33.652344 315.269531 54.257812 315.269531 79.585938 L 315.269531 157.035156 "/>
<path style=" stroke:none;fill-rule:nonzero;fill:rgb(8.239746%,7.449341%,7.058716%);fill-opacity:1;" d="M 316.75 151.160156 L 280.855469 151.160156 C 278.699219 151.160156 276.941406 152.914062 276.941406 155.074219 L 276.941406 162.257812 L 320.664062 162.257812 L 320.664062 155.074219 C 320.664062 152.914062 318.910156 151.160156 316.75 151.160156 "/>
<path style=" stroke:none;fill-rule:nonzero;fill:rgb(8.239746%,7.449341%,7.058716%);fill-opacity:1;" d="M 254.316406 31.226562 C 254.859375 31.269531 254.316406 40.800781 254.316406 40.800781 L 209.828125 40.800781 C 209.828125 40.800781 217.441406 28.070312 254.316406 31.226562 "/>
<path style=" stroke:none;fill-rule:nonzero;fill:rgb(67.83905%,67.059326%,67.449951%);fill-opacity:1;" d="M 256.109375 40.71875 L 207.21875 40.71875 C 206.304688 40.71875 205.558594 41.464844 205.558594 42.378906 C 205.558594 43.296875 206.304688 44.042969 207.21875 44.042969 L 256.109375 44.042969 C 257.023438 44.042969 257.769531 43.296875 257.769531 42.378906 C 257.769531 41.464844 257.023438 40.71875 256.109375 40.71875 "/>
<path style=" stroke:none;fill-rule:nonzero;fill:rgb(49.798584%,49.798584%,50.588989%);fill-opacity:1;" d="M 254.316406 31.226562 L 254.316406 40.800781 L 255.839844 40.800781 L 256.707031 39.386719 L 264.433594 39.386719 L 264.433594 33.292969 L 256.601562 33.292969 L 254.316406 31.226562 "/>
<path style=" stroke:none;fill-rule:nonzero;fill:rgb(45.878601%,46.269226%,47.059631%);fill-opacity:1;" d="M 252.40625 305.601562 C 252.40625 305.601562 290.960938 296.539062 333.300781 305.601562 L 330.597656 361.738281 L 255.109375 361.738281 L 252.40625 305.601562 "/>
<path style=" stroke:none;fill-rule:nonzero;fill:rgb(74.119568%,39.99939%,13.328552%);fill-opacity:1;" d="M 252.625 307.273438 C 252.625 307.273438 293.53125 320.765625 294.34375 320.765625 C 295.15625 320.765625 330.597656 307.410156 330.597656 307.410156 C 330.597656 307.410156 285.578125 299.191406 252.625 307.273438 "/>
<path style=" stroke:none;fill-rule:nonzero;fill:rgb(52.159119%,52.549744%,52.549744%);fill-opacity:1;" d="M 333.300781 305.601562 L 330.597656 361.738281 C 288.027344 370.128906 267.765625 358.578125 267.765625 358.578125 C 258.503906 354.25 261.683594 306.984375 261.683594 306.984375 C 297.675781 311.417969 333.300781 305.601562 333.300781 305.601562 "/>
<path style=" stroke:none;fill-rule:nonzero;fill:rgb(48.629761%,25.878906%,10.198975%);fill-opacity:1;" d="M 320.734375 247.808594 C 315.191406 248.21875 313.835938 246.726562 312.351562 250.519531 C 310.859375 254.308594 296.117188 259.046875 293.816406 264.730469 C 291.515625 270.414062 281.910156 284.898438 293.542969 297.078125 C 305.179688 309.261719 310.859375 300.78125 314.78125 305.832031 C 314.78125 305.832031 305.789062 307.234375 302.542969 306.21875 C 299.890625 305.386719 298.1875 304.511719 294.96875 305.289062 C 281.910156 295.601562 283.710938 272.828125 282.96875 267.324219 C 289.476562 257.324219 302.75 252.050781 303.015625 249.4375 C 303.285156 246.726562 295.304688 244.429688 298.414062 240.5 C 301.527344 236.578125 298.414062 241.316406 302.472656 244.96875 C 306.53125 248.621094 309.777344 249.4375 311.398438 246.457031 C 313.027344 243.480469 320.058594 246.1875 321.953125 243.753906 C 323.847656 241.316406 326.28125 247.40625 320.734375 247.808594 "/>
<path style=" stroke:none;fill-rule:nonzero;fill:rgb(38.42926%,20.388794%,8.628845%);fill-opacity:1;" d="M 294.96875 305.289062 C 294.242188 305.460938 293.4375 305.71875 292.53125 306.078125 C 287.589844 308.042969 281.503906 304.796875 278.867188 305.945312 C 276.230469 307.097656 274.066406 305.832031 274.066406 305.832031 C 274.066406 305.832031 275.238281 301.863281 280.558594 299.695312 C 285.878906 297.53125 276.09375 279.078125 282.316406 268.382812 C 282.523438 268.027344 282.746094 267.671875 282.96875 267.324219 C 283.710938 272.828125 281.910156 295.601562 294.96875 305.289062 "/>
<path style=" stroke:none;fill-rule:nonzero;fill:rgb(48.629761%,25.878906%,10.198975%);fill-opacity:1;" d="M 278.03125 250.246094 C 278.121094 250.609375 279.296875 254.847656 282.996094 256.746094 C 286.691406 258.640625 288.496094 263.785156 288.496094 263.785156 L 290.570312 261.253906 C 290.570312 261.253906 287.683594 255.570312 284.300781 254.847656 C 280.917969 254.128906 279.476562 249.074219 279.476562 249.074219 L 278.03125 250.246094 "/>
<path style=" stroke:none;fill-rule:nonzero;fill:rgb(13.729858%,37.649536%,17.649841%);fill-opacity:1;" d="M 353.742188 244.429688 C 353.203125 246.90625 351.980469 248.90625 350.511719 250.296875 C 348.367188 247.484375 345.316406 242.613281 341.433594 239.023438 C 336.019531 234.03125 328.085938 240.589844 325.921875 239.023438 C 323.757812 237.457031 314.738281 235.902344 314.738281 235.902344 C 314.738281 235.902344 310.769531 236.625 308.609375 237.796875 C 306.441406 238.964844 299.585938 237.886719 294.96875 233.554688 C 290.351562 229.222656 286.058594 234.273438 274.066406 233.554688 C 269.269531 233.261719 267.429688 231.589844 266.945312 229.683594 C 274.820312 227.019531 276.839844 227.707031 280.558594 224.800781 C 284.886719 221.417969 285.292969 219.792969 290.570312 221.417969 C 295.84375 223.042969 298.144531 217.492188 304.234375 217.628906 C 310.320312 217.765625 312.351562 218.847656 314.917969 220.335938 C 317.488281 221.824219 327.5 217.765625 330.746094 225.074219 C 333.992188 232.378906 337.644531 229.539062 342.105469 232.652344 C 346.574219 235.765625 347.519531 234.207031 349.683594 237.425781 C 351.851562 240.640625 355.09375 238.203125 353.742188 244.429688 "/>
<path style=" stroke:none;fill-rule:nonzero;fill:rgb(15.689087%,55.688477%,23.919678%);fill-opacity:1;" d="M 326.011719 259.71875 C 325.816406 259.820312 325.625 259.914062 325.4375 259.996094 C 324.347656 259.324219 322.902344 258.683594 321.050781 258.070312 C 316.089844 256.421875 313.113281 262.070312 303.582031 258.800781 C 301.25 255.46875 299.105469 257.285156 299.105469 257.285156 C 295.070312 252.144531 307.074219 252.683594 313.027344 252.472656 C 318.976562 252.265625 321.144531 253.902344 326.554688 254.75 C 331.964844 255.601562 327.90625 258.773438 326.011719 259.71875 "/>
<path style=" stroke:none;fill-rule:nonzero;fill:rgb(15.689087%,55.688477%,23.919678%);fill-opacity:1;" d="M 297.601562 277.589844 C 297.394531 277.910156 297.21875 278.214844 297.054688 278.476562 C 292.851562 273.820312 285.5625 275.964844 284.300781 275.015625 C 283.039062 274.070312 277.988281 273.394531 276.367188 272.808594 C 274.742188 272.21875 268.519531 273.125 266.355469 272.808594 C 264.191406 272.492188 263.105469 271.90625 258.371094 266.160156 C 253.640625 260.417969 253.640625 266.355469 249.851562 262.429688 C 247.671875 260.171875 246.789062 258.941406 246.4375 258.308594 C 247.117188 258.179688 247.832031 258.054688 248.632812 257.960938 C 253.367188 257.421875 255.9375 257.34375 259.320312 258.800781 C 262.703125 260.261719 262.160156 261.535156 265.136719 258.800781 C 268.113281 256.066406 263.359375 252.5 267.761719 252.457031 C 272.171875 252.414062 276.5 259.234375 279.882812 258.800781 C 283.265625 258.367188 285.203125 255.566406 286.261719 259.675781 C 287.324219 263.785156 289.621094 263.375 288.132812 266.21875 C 286.648438 269.058594 284.347656 270.863281 287.457031 271.363281 C 290.570312 271.863281 297.496094 270.332031 298.292969 272.875 C 299.089844 275.425781 298.820312 275.695312 297.601562 277.589844 "/>
<path style=" stroke:none;fill-rule:nonzero;fill:rgb(15.689087%,55.688477%,23.919678%);fill-opacity:1;" d="M 296.660156 247.113281 L 296.660156 250.789062 C 294.085938 249.839844 289.351562 247.269531 287.589844 245.648438 C 285.835938 244.019531 282.179688 245.507812 279.613281 246.5 C 277.042969 247.484375 269.871094 247.132812 268.519531 245.78125 C 267.164062 244.429688 261.078125 244.699219 253.097656 246.324219 C 249.121094 247.132812 247.058594 245.015625 245.988281 242.695312 C 248.640625 241.632812 250.394531 242.511719 250.394531 242.511719 C 251.203125 241.292969 258.511719 240.886719 262.835938 239.480469 C 267.164062 238.078125 271.765625 240.34375 272.308594 240.625 C 272.847656 240.910156 284.484375 244.273438 289.351562 240.625 C 294.222656 236.988281 295.167969 243.1875 295.167969 243.1875 L 296.660156 247.113281 "/>
<path style=" stroke:none;fill-rule:nonzero;fill:rgb(13.328552%,43.919373%,20.388794%);fill-opacity:1;" d="M 297.054688 278.476562 C 296.246094 279.789062 295.695312 280.359375 293 279.347656 C 289.757812 278.132812 290.296875 276.371094 286.648438 277.453125 C 282.996094 278.535156 280.242188 279.078125 278.035156 278.398438 C 275.824219 277.722656 274.46875 275.695312 272.847656 276.371094 C 271.222656 277.046875 275.28125 276.914062 269.058594 277.179688 C 262.835938 277.453125 260.265625 275.695312 259.863281 275.152344 C 259.457031 274.609375 257.292969 271.90625 254.449219 273.933594 C 251.609375 275.964844 247.550781 275.335938 246.0625 272.875 C 244.574219 270.414062 245.386719 267.4375 240.246094 267.4375 C 235.105469 267.4375 228.613281 269.058594 226.3125 266.21875 C 226.3125 266.21875 230.234375 257.476562 236.054688 258.800781 C 240.890625 259.902344 243.109375 258.96875 246.4375 258.308594 C 246.789062 258.941406 247.671875 260.171875 249.851562 262.429688 C 253.640625 266.355469 253.640625 260.417969 258.371094 266.160156 C 263.105469 271.90625 264.191406 272.492188 266.355469 272.808594 C 268.519531 273.125 274.742188 272.21875 276.367188 272.808594 C 277.988281 273.394531 283.039062 274.070312 284.300781 275.015625 C 285.5625 275.964844 292.851562 273.820312 297.054688 278.476562 "/>
<path style=" stroke:none;fill-rule:nonzero;fill:rgb(14.509583%,48.239136%,21.958923%);fill-opacity:1;" d="M 296.660156 250.789062 L 296.660156 251.851562 C 296.660156 251.851562 293.816406 254.554688 293.277344 254.828125 C 292.734375 255.097656 284.886719 253.746094 281.503906 250.679688 C 278.121094 247.605469 277.445312 252.796875 275.554688 253.613281 C 273.660156 254.421875 271.898438 251.984375 270.820312 250.679688 C 269.734375 249.367188 268.382812 249.820312 267.570312 250.679688 C 266.761719 251.535156 261.617188 250.765625 259.996094 250.679688 C 258.371094 250.585938 259.457031 252.933594 258.238281 255.230469 C 257.019531 257.535156 250.121094 255.773438 248.765625 254.554688 C 247.414062 253.335938 240.652344 254.691406 240.113281 254.554688 C 239.570312 254.421875 236.863281 250.902344 241.734375 245.761719 C 243.292969 244.113281 244.738281 243.1875 245.988281 242.695312 C 247.058594 245.015625 249.121094 247.132812 253.097656 246.324219 C 261.078125 244.699219 267.164062 244.429688 268.519531 245.78125 C 269.871094 247.132812 277.042969 247.484375 279.613281 246.5 C 282.179688 245.507812 285.835938 244.019531 287.589844 245.648438 C 289.351562 247.269531 294.085938 249.839844 296.660156 250.789062 "/>
<path style=" stroke:none;fill-rule:nonzero;fill:rgb(13.729858%,33.729553%,15.689087%);fill-opacity:1;" d="M 350.511719 250.296875 C 348.277344 252.402344 345.472656 253.09375 343.597656 251.871094 C 340.488281 249.839844 335.480469 240.640625 330.203125 243.753906 C 324.929688 246.863281 321.761719 246.945312 318.675781 244.875 C 315.59375 242.804688 316.136719 240.234375 311.671875 241.585938 C 307.207031 242.9375 309.488281 243.445312 304.875 244.699219 C 300.257812 245.949219 295.167969 244.429688 295.167969 244.429688 C 295.167969 244.429688 295.304688 246.726562 290.570312 248.21875 C 285.835938 249.707031 276.769531 242.9375 270.953125 242.9375 C 265.136719 242.9375 260.042969 243.394531 257.5625 241.453125 C 257.5625 241.453125 250.933594 235.902344 262.566406 231.300781 C 264.203125 230.648438 265.652344 230.121094 266.945312 229.683594 C 267.429688 231.589844 269.269531 233.261719 274.066406 233.554688 C 286.058594 234.273438 290.351562 229.222656 294.96875 233.554688 C 299.585938 237.886719 306.441406 238.964844 308.609375 237.796875 C 310.769531 236.625 314.738281 235.902344 314.738281 235.902344 C 314.738281 235.902344 323.757812 237.457031 325.921875 239.023438 C 328.085938 240.589844 336.019531 234.03125 341.433594 239.023438 C 345.316406 242.613281 348.367188 247.484375 350.511719 250.296875 "/>
<path style=" stroke:none;fill-rule:nonzero;fill:rgb(14.898682%,50.588989%,22.749329%);fill-opacity:1;" d="M 325.4375 259.996094 C 323.847656 260.730469 322.589844 261.117188 319.925781 263.785156 C 316.945312 266.761719 306.804688 264.59375 304.234375 259.859375 C 304.015625 259.457031 303.800781 259.109375 303.582031 258.800781 C 313.113281 262.070312 316.089844 256.421875 321.050781 258.070312 C 322.902344 258.683594 324.347656 259.324219 325.4375 259.996094 "/>
<path style=" stroke:none;fill-rule:nonzero;fill:rgb(45.878601%,46.269226%,47.059631%);fill-opacity:1;" d="M 330.597656 361.738281 C 330.597656 361.738281 294.074219 375.003906 255.109375 361.738281 L 252.40625 305.601562 C 255.484375 306.144531 258.578125 306.605469 261.671875 306.980469 L 261.683594 306.984375 C 261.683594 306.984375 258.503906 354.25 267.765625 358.578125 C 267.765625 358.578125 288.027344 370.128906 330.597656 361.738281 "/>
</g>
</svg>
